<?xml version="1.0" encoding="utf-8"?>
<!-- Generator: Adobe Illustrator 19.0.0, SVG Export Plug-In . SVG Version: 6.00 Build 0)  -->
<svg version="1.1" id="Layer_1" xmlns="http://www.w3.org/2000/svg" xmlns:xlink="http://www.w3.org/1999/xlink" x="0px" y="0px"
	 viewBox="0 0 24 24" style="enable-background:new 0 0 24 24;" xml:space="preserve">
<style type="text/css">
	.st0{fill:#333333;}
	.st1{fill-rule:evenodd;clip-rule:evenodd;fill:#333333;}
</style>
<g id="XMLID_34_">
	<g id="XMLID_361_">
		<path id="XMLID_48_" class="st0" d="M23.4,8.3c1.6,4.9-0.2,10.4-4.4,13.4s-9.9,3.1-14.1,0c-4.2-3.1-6-8.5-4.4-13.4
			C2.2,3.4,6.8,0,12,0C17.2,0,21.8,3.4,23.4,8.3z M12,1.1c-4.7,0-8.9,3-10.4,7.5c-1.5,4.5,0.1,9.4,4,12.2c3.8,2.8,9,2.8,12.8,0
			c3.8-2.8,5.4-7.7,4-12.2C20.9,4.1,16.7,1.1,12,1.1z"/>
	</g>
	<g id="XMLID_47_">
		<path id="XMLID_55_" class="st1" d="M6.3,15.8c0-2.5,0-5,0-7.5c0,0,0,0,0,0c1.2,0,2.4,0,3.7,0c0.4,0,0.8,0.1,1.2,0.2
			c0.6,0.3,0.9,0.7,1,1.4c0.1,0.3,0,0.7-0.1,1c-0.1,0.3-0.4,0.6-0.7,0.8c0,0-0.1,0.1-0.1,0.1c0,0,0,0,0.1,0c0.6,0.2,0.9,0.7,1,1.3
			c0.1,0.5,0,1-0.2,1.5c-0.3,0.7-0.9,1.1-1.6,1.2c-0.3,0.1-0.6,0.1-1,0.1C8.6,15.8,7.5,15.8,6.3,15.8C6.3,15.8,6.3,15.8,6.3,15.8z
			 M8,14.5C8,14.5,8.1,14.5,8,14.5c0.6,0,1.1,0,1.6,0c0.2,0,0.3,0,0.5,0c0.4-0.1,0.6-0.3,0.7-0.7c0-0.1,0-0.3,0-0.4
			c0-0.4-0.2-0.6-0.6-0.8c-0.2-0.1-0.4-0.1-0.5-0.1c-0.6,0-1.1,0-1.7,0c0,0,0,0,0,0C8,13.1,8,13.8,8,14.5z M8,11.2
			C8,11.2,8.1,11.2,8,11.2c0.6,0,1.1,0,1.6,0c0.2,0,0.5,0,0.7-0.2c0.2-0.1,0.3-0.2,0.3-0.4c0-0.1,0-0.3,0-0.5c0-0.3-0.2-0.5-0.5-0.6
			C10,9.6,9.7,9.5,9.5,9.5c-0.5,0-0.9,0-1.4,0c0,0,0,0,0,0C8,10.1,8,10.7,8,11.2z"/>
		<path id="XMLID_59_" class="st1" d="M18.4,13.2c-1.3,0-2.6,0-3.9,0c0,0.1,0,0.2,0,0.2c0,0.2,0.1,0.3,0.1,0.4
			c0.2,0.4,0.5,0.6,0.9,0.6c0.2,0,0.4,0,0.7,0c0.3-0.1,0.6-0.3,0.7-0.5c0,0,0,0,0.1,0c0.4,0,0.9,0,1.3,0c0,0,0,0,0.1,0
			c0,0.1,0,0.1-0.1,0.2c-0.1,0.3-0.2,0.5-0.4,0.7c-0.4,0.5-0.9,0.7-1.5,0.8c-0.5,0.1-0.9,0.1-1.4-0.1c-0.5-0.1-0.9-0.4-1.3-0.7
			c-0.3-0.3-0.4-0.7-0.5-1c-0.1-0.7-0.1-1.4,0.1-2.1c0.3-1,1-1.5,1.9-1.7c0.6-0.1,1.2-0.1,1.8,0.2c0.5,0.2,0.9,0.6,1.2,1.1
			c0.2,0.3,0.3,0.7,0.3,1C18.4,12.7,18.4,12.9,18.4,13.2C18.4,13.2,18.4,13.2,18.4,13.2z M16.9,12.3C16.9,12.3,16.9,12.3,16.9,12.3
			c0-0.1,0-0.1,0-0.2c-0.1-0.4-0.3-0.7-0.7-0.9c-0.2-0.1-0.4-0.1-0.6-0.1c-0.4,0-0.8,0.2-1,0.7c0,0.1-0.1,0.2-0.1,0.3
			c0,0,0,0.1,0,0.1C15.3,12.3,16.1,12.3,16.9,12.3z"/>
		<path id="XMLID_62_" class="st1" d="M14.2,9.4c0-0.3,0-0.6,0-0.9c1,0,2,0,3,0c0,0.3,0,0.6,0,0.9C16.2,9.4,15.2,9.4,14.2,9.4z"/>
	</g>
</g>
</svg>
