<?xml version="1.0" encoding="utf-8"?>
<!-- Generator: Adobe Illustrator 19.0.0, SVG Export Plug-In . SVG Version: 6.00 Build 0)  -->
<svg version="1.1" id="Layer_1" xmlns="http://www.w3.org/2000/svg" xmlns:xlink="http://www.w3.org/1999/xlink" x="0px" y="0px"
	 viewBox="0 0 24 24" style="enable-background:new 0 0 24 24;" xml:space="preserve">
<style type="text/css">
	.st0{fill:#333333;}
	.st1{fill-rule:evenodd;clip-rule:evenodd;fill:#333333;}
</style>
<g id="XMLID_104_">
	<g id="XMLID_357_">
		<path id="XMLID_112_" class="st0" d="M23.4,8.3c1.6,4.9-0.2,10.4-4.4,13.4c-4.2,3.1-9.9,3.1-14.1,0c-4.2-3.1-6-8.5-4.4-13.4
			C2.2,3.4,6.8,0,12,0C17.2,0,21.8,3.4,23.4,8.3z M12,1.1c-4.7,0-8.9,3-10.4,7.5c-1.5,4.5,0.1,9.4,4,12.2c3.8,2.8,9,2.8,12.8,0
			c3.8-2.8,5.4-7.7,4-12.2C20.9,4.1,16.7,1.1,12,1.1z"/>
	</g>
	<path id="XMLID_111_" class="st1" d="M15.1,7.5H8.9c-0.8,0-1.4,0.6-1.4,1.4v6.1c0,0.8,0.6,1.4,1.4,1.4h6.1c0.8,0,1.4-0.6,1.4-1.4
		V8.9C16.5,8.2,15.8,7.5,15.1,7.5z M13.9,8.8c0-0.1,0.1-0.2,0.2-0.2h1.1c0.1,0,0.2,0.1,0.2,0.2v1.1c0,0.1-0.1,0.2-0.2,0.2h-1.1
		c-0.1,0-0.2-0.1-0.2-0.2V8.8z M10.4,11.4c0.3-0.7,0.9-1.1,1.6-1.1c0.7,0,1.4,0.5,1.6,1.1c0.1,0.2,0.1,0.4,0.1,0.6
		c0,1-0.8,1.8-1.8,1.8c-1,0-1.8-0.8-1.8-1.8C10.2,11.8,10.3,11.6,10.4,11.4z M15.5,15.1c0,0.2-0.2,0.5-0.5,0.5H8.9
		c-0.2,0-0.4-0.2-0.4-0.5v-3.7h0.9c-0.1,0.2-0.1,0.4-0.1,0.6c0,1.5,1.2,2.7,2.7,2.7c1.5,0,2.7-1.2,2.7-2.7c0-0.2,0-0.4-0.1-0.6h0.9
		V15.1z"/>
</g>
</svg>
