<?xml version="1.0" encoding="utf-8"?>
<!-- Generator: Adobe Illustrator 19.0.0, SVG Export Plug-In . SVG Version: 6.00 Build 0)  -->
<svg version="1.1" id="Layer_1" xmlns="http://www.w3.org/2000/svg" xmlns:xlink="http://www.w3.org/1999/xlink" x="0px" y="0px"
	 viewBox="628 -348 1280 720" style="enable-background:new 628 -348 1280 720;" xml:space="preserve">
<style type="text/css">
	.st0{opacity:0.2;}
	.st1{fill:#254659;}
	.st2{fill:#B0CAD9;}
	.st3{fill:#D1E2EB;}
	.st4{fill:#617F91;}
	.st5{fill:#8097A6;}
	.st6{fill:#FFFFFF;}
	.st7{fill:#E6E6E6;}
	.st8{fill:#B3B3B3;}
	.st9{fill:#886734;}
	.st10{fill:#694F28;}
	.st11{fill:#BD9D6E;}
	.st12{fill:#4D4D4D;}
	.st13{fill:#333333;}
	.st14{fill:#CCCCCC;}
	.st15{fill:#F85A68;}
	.st16{fill:#C62229;}
	.st17{fill:#D0D0D0;}
	.st18{fill:#F5E6B6;}
	.st19{fill:#FFD800;}
	.st20{fill:#F0B16C;}
	.st21{fill:#C78B4C;}
	.st22{fill:#1E1E1E;}
	.st23{fill:#222222;}
	.st24{fill:#444444;}
	.st25{fill:#BBBBBB;}
	.st26{fill:#666666;}
	.st27{fill:#AAAAAA;}
	.st28{fill:none;stroke:#FC2727;stroke-width:3;stroke-miterlimit:10;}
</style>
<g id="Artwork">
	<g id="XMLID_1_">
		<path id="XMLID_262_" class="st0" d="M870.3-98.8c26.3,2.2,47,24.3,47,51.2c0,28.4-23,51.3-51.3,51.3c-28.3,0-51.3-23-51.3-51.3
			c0-25.9,19.2-47.4,44.2-50.8v-6.6c0-2.2,1.8-4,4-4h3.4c2.2,0,4,1.8,4,4V-98.8L870.3-98.8z"/>
		<g id="XMLID_263_">
			<path id="XMLID_256_" class="st0" d="M1651.3-114.5c-4.3-0.8-20.9-9-33.1-12.5s-31-5.7-34.4-5.3c-4.1,0.5-4.2,0.7-5,3.6
				c-0.7,2.9-0.8,5.4,1.3,6.6c2.7,1.5,2.2,5,1.9,15c-2.1,4.1-3.2,8.4-3.8,11.1c-1,5.2,3.5,8.4,6.4,3.7c2.8,4.8,8.4,8.9,19,11.9
				c18.6,5.2,27.3-5.7,30.2-9.2c5-6.3,5.8-16.1,15.4-14.2c9.5,1.9,6.7,11.2,8.9,18.9c1.3,4.3,4.9,17.9,24.1,20.2
				c10.9,1.3,17.6-0.3,22.1-3.7c0.9,5.5,6.3,4.3,7.3-1c0.5-2.7,1.2-7.2,0.8-11.8c3.6-9.2,4.5-12.6,7.5-13c2.4-0.3,3.4-2.7,3.8-5.6
				c0.4-2.9,0.4-3.3-3.2-5.2c-3-1.7-21.1-6.9-33.7-8.4C1675.6-114.5,1661.4-112.7,1651.3-114.5z"/>
			<g id="XMLID_129_">
				<path id="XMLID_147_" class="st1" d="M1577.8-135.8c24,4.3,106.6,28,118.9,33.6c12.3,5.5,10.6,21.7,9.3,28.2
					c-1.3,6.5-9.3,6.8-7.1-4.2c2.2-11,2.4-17.1-5.1-19.3s-109.5-28.5-116.6-30.1C1570-129.3,1573-137.1,1577.8-135.8z"/>
				<path id="XMLID_146_" class="st1" d="M1714.6-108.4c-23.8-5.3-109.2-15.2-122.7-14.8s-18.1,15.9-19.4,22.4s6,9.8,8.2-1.1
					c2.2-11,4.3-16.7,12.1-15.8s112,15.9,119.2,17.1C1719.3-99.4,1719.4-107.7,1714.6-108.4z"/>
				<path id="XMLID_142_" d="M1680.2-69.1c16.6,1.1,22.1-5.7,25.7-14.8c4.2-10.7,5-14.6,8.3-15c2.4-0.3,3.4-2.7,3.8-5.6
					c0.4-2.9,0.4-3.3-3.2-5.2c-3-1.7-21.1-6.9-33.7-8.4c-0.3,0-0.6-0.1-0.9-0.1v3c10.7,1.3,21.4,4.6,24,7c5.6,5,0.8,22.6-5.9,30.5
					c-3.7,4.4-10.9,6-18.1,5.7L1680.2-69.1L1680.2-69.1z M1645.5-119.4c-4.3-0.8-20.9-9-33.1-12.5c-1.9-0.6-4-1.1-6.2-1.6v3.2
					c10.9,2.3,22.7,6.8,25.8,13.1c4.5,9.4-9.4,27.3-19.6,29.9c-1.8,0.5-3.9,0.6-6.1,0.5v2.9c13,0.5,19.5-7.6,21.9-10.5
					c5-6.3,5.8-16.1,15.4-14.2c9.5,1.9,6.7,11.2,8.9,18.9c1.3,4.3,4.9,17.9,24.1,20.2c1.3,0.2,2.6,0.3,3.7,0.4V-72
					c-6.2-0.3-12.4-2.1-16.2-4.9c-8.5-6.3-14.4-28.2-6.6-35.1c4.3-3.8,13.6-4.2,22.8-3.1v-3C1669.1-119.3,1655.3-117.7,1645.5-119.4
					z M1606.2-133.4c-11.6-2.6-25.3-4-28.1-3.7c-4.1,0.5-4.2,0.7-5,3.6c-0.7,2.9-0.8,5.4,1.3,6.6c2.9,1.6,2.1,5.5,1.9,17
					c-0.2,10.5,2.7,19.4,21.6,24.7c3,0.8,5.8,1.3,8.3,1.4v-2.9c-10-0.4-22.6-6.1-25.3-14.4c-3.1-9.8-0.8-28,6.3-30.4
					c2.7-1,10.6-0.5,19,1.3V-133.4z"/>
				<path id="XMLID_139_" class="st2" d="M1587.2-131.6c6.3-2.2,39.4,3.3,44.7,14.5c4.5,9.4-9.4,27.3-19.6,29.9
					c-9.9,2.5-28.1-3.7-31.4-13.9C1577.7-111,1580.1-129.1,1587.2-131.6L1587.2-131.6z M1704.3-108.2c-4.9-4.4-37.6-12.2-46.9-3.9
					c-7.8,6.9-1.9,28.8,6.6,35.1c8.2,6.1,27.4,7.4,34.3-0.7C1705-85.5,1709.8-103.2,1704.3-108.2z"/>
				<g id="XMLID_136_">
					<path id="XMLID_138_" class="st3" d="M1590.5-132.1c10.5-0.3,36.7,5.1,41.4,14.9c3.2,6.6-2.7,17.4-10.1,24.1L1590.5-132.1z"/>
					<path id="XMLID_137_" class="st3" d="M1663.4-114.9l31.9,39.8c1.1-0.7,2.2-1.6,3-2.5c6.7-7.9,11.5-25.5,5.9-30.5
						C1700.1-111.9,1676.4-117.9,1663.4-114.9z"/>
				</g>
				<path id="XMLID_133_" class="st4" d="M1696.8-111.6c-8.3-1.3-18.2-2.7-28.5-4c-2.9,0.2-5.6,0.7-7.8,1.6l0,0h-0.1l0,0l0,0h-0.1
					h-0.1l0,0h-0.1h-0.1l0,0l0,0l-0.1,0.1l0,0l0,0h-0.1h-0.1l0,0l0,0h-0.1h-0.1l0,0h-0.1h-0.1l0,0l0,0h-0.1h-0.1l0,0l0,0h-0.1l0,0
					h-0.1l0,0h-0.1l0,0l0,0h-0.1h-0.1l0,0l0,0h-0.1h-0.1h-0.1l0,0h-0.1l0,0l0,0l0,0l0,0l0,0l0,0l0,0l0,0l0,0l0,0l0,0l0,0l-0.1,0.1
					l0,0l0,0l0,0l-0.1,0.1l0,0l0,0l0,0l0,0l0,0l0,0l0,0l0,0l0,0l0,0l0,0l0,0l0,0l0,0l-0.1,0.1l0,0l0,0l-0.1,0.1l0,0l-0.1,0.1l0,0
					l0,0l0,0l0,0l0,0l0,0l0,0l0,0l0,0l0,0l0,0l0,0l0,0l0,0l0,0l0,0l0,0l0,0l0,0l0,0l0,0l0,0c-0.9,1-1.6,2.3-2.1,3.7
					c19.7,5.1,36.2,9.4,39,10.3c7.5,2.2,7.3,8.3,5.1,19.3l0,0c2.8-3.6,5.3-8.8,6.6-14c-1.4-4.1-4.1-7.8-8.8-10
					c-0.7-0.3-1.7-0.7-2.8-1.1c5.2,0.8,9.6,1.4,12.8,1.9c-0.1-2.9-0.9-5.3-2.4-6.7C1703.1-109.2,1700.4-110.4,1696.8-111.6
					L1696.8-111.6z M1595.3-131.9c8.2,2,17.8,4.5,27.8,7.3c2.6,1.3,4.9,2.8,6.6,4.5l0,0l0,0l0,0c0.1,0.1,0.1,0.1,0.2,0.2l0,0l0,0
					l0,0l0,0l0,0l0,0l0,0l0,0l0,0l0,0l0,0l0,0l0,0l0,0l0,0l0,0l0,0l0,0l0,0l0,0l0,0l0,0l0,0l0,0l0,0l0,0l0,0l0,0l0,0l0,0l0,0l0,0
					l0,0l0,0l0,0l0,0l0,0l0,0l0,0l0,0l0,0l0,0l0,0l0,0l0,0l0,0l0,0l0,0l0,0l0,0l0,0l0,0l0,0l0,0l0,0l0,0l0,0l0,0l0,0l0,0l0,0l0,0
					l0,0l0,0l0,0l0,0l0,0l0,0l0,0v0.1l0,0v0.1l0,0l0,0v0.1v0.1l0,0l0,0l0,0l0,0v0.1l0,0v0.1l0,0l0,0l0,0l0,0l0,0l0,0v0.1l0,0l0,0
					v0.1v0.1l0,0l0,0c0.5,1.3,0.6,2.7,0.5,4.2c-20.2-2.9-37-5.2-39.9-5.6c-7.8-0.9-9.9,4.9-12.1,15.8v0.1
					c-1.2-4.4-1.5-10.2-0.8-15.5c2.9-3.3,6.8-5.7,12-5.9c0.8,0,1.8,0,3.1,0c-5.1-1.3-9.5-2.4-12.6-3.2c1.2-2.6,2.8-4.5,4.8-5.2
					C1588.6-132.1,1591.6-132.2,1595.3-131.9z"/>
				<g id="XMLID_130_">
					<path id="XMLID_132_" class="st5" d="M1590.5-132.1l12.6,15.6c7.4,1,18,2.5,29.7,4.2c0.1-1.5-0.1-2.9-0.5-4.2l0,0l0,0v-0.1
						v-0.1l0,0l0,0v-0.1l0,0l0,0l0,0l0,0l0,0l0,0v-0.1l0,0v-0.1l0,0l0,0l0,0l0,0v-0.1v-0.1l0,0l0,0v-0.1l0,0v-0.1l0,0l0,0l0,0l0,0
						l0,0l0,0l0,0l0,0l0,0l0,0l0,0l0,0l0,0l0,0l0,0l0,0l0,0l0,0l0,0l0,0l0,0l0,0l0,0l0,0l0,0l0,0l0,0l0,0l0,0l0,0l0,0l0,0l0,0l0,0
						l0,0l0,0l0,0l0,0l0,0l0,0l0,0l0,0l0,0l0,0l0,0l0,0l0,0l0,0l0,0l0,0l0,0l0,0l0,0l0,0l0,0l0,0l0,0l0,0l0,0l0,0l0,0l0,0l0,0l0,0
						l0,0l0,0l0,0l0,0l0,0c-0.1-0.1-0.1-0.1-0.2-0.2l0,0l0,0l0,0c-1.7-1.7-3.9-3.1-6.6-4.5c-10-2.7-19.6-5.3-27.8-7.3
						C1593.5-132.1,1591.9-132.1,1590.5-132.1z"/>
					<path id="XMLID_131_" class="st5" d="M1696.8-111.6c-8.3-1.3-18.2-2.7-28.5-4c-1.8,0.1-3.4,0.4-4.9,0.7l9.4,11.8
						c11,2.9,19,5,20.9,5.5c7.5,2.2,7.3,8.3,5.1,19.3l0,0c2.8-3.6,5.3-8.8,6.6-14c-1.4-4.1-4.1-7.8-8.8-10c-0.7-0.3-1.7-0.7-2.8-1.1
						c5.2,0.8,9.6,1.4,12.8,1.9c-0.1-2.9-0.9-5.3-2.4-6.7C1703.1-109.2,1700.4-110.4,1696.8-111.6z"/>
				</g>
			</g>
		</g>
		<g id="XMLID_119_">
			<path id="XMLID_128_" class="st6" d="M860.2-1.1c28.3,0,51.3-23.1,51.3-51.3c0-28.3-23.1-51.3-51.3-51.3
				c-28.3,0-51.3,23.1-51.3,51.3C808.8-24.2,831.9-1.1,860.2-1.1z"/>
			<path id="XMLID_127_" class="st7" d="M860.2-4.3c26.5,0,48.2-21.6,48.2-48.2c0-26.5-21.6-48.2-48.2-48.2
				c-26.5,0-48.2,21.6-48.2,48.2S833.6-4.3,860.2-4.3z"/>
			<path id="XMLID_126_" class="st6" d="M857-113.8h3.4c2.2,0,4,1.8,4,4v25.2c0,2.2-1.8,4-4,4H857c-2.2,0-4-1.8-4-4v-25.2
				C853-112,854.8-113.8,857-113.8z"/>
			<path id="XMLID_125_" class="st7" d="M857.6-111.8h2.2c1.4,0,2.6,1.1,2.6,2.6v23.7c0,1.4-1.1,2.6-2.6,2.6h-2.2
				c-1.4,0-2.6-1.1-2.6-2.6v-23.7C855.1-110.7,856.2-111.8,857.6-111.8z"/>
			<path id="XMLID_124_" class="st6" d="M860.2-12c22.3,0,40.4-18.2,40.4-40.4c0-22.3-18.2-40.4-40.4-40.4
				c-22.3,0-40.4,18.2-40.4,40.4C819.7-30.2,837.9-12,860.2-12z"/>
			<path id="XMLID_123_" class="st8" d="M860.2-16c20.1,0,36.4-16.4,36.4-36.4c0-20.1-16.4-36.4-36.4-36.4s-36.4,16.4-36.4,36.4
				C823.7-32.4,840.1-16,860.2-16z"/>
			<path id="XMLID_122_" class="st9" d="M860.2-21.5c17.1,0,31-13.9,31-31s-13.9-31-31-31s-31,13.9-31,31S843.1-21.5,860.2-21.5z"/>
			<path id="XMLID_121_" class="st10" d="M860.2-30.1c12.3,0,22.4-10.1,22.4-22.4s-10.1-22.4-22.4-22.4s-22.4,10.1-22.4,22.4
				C837.8-40.1,847.9-30.1,860.2-30.1z"/>
			<path id="XMLID_120_" class="st11" d="M881.8-69.5c3.7,4.7,5.9,10.6,5.9,17.1c0,15.2-12.3,27.5-27.5,27.5
				c-6.4,0-12.4-2.2-17.1-5.9c4.4,2.8,9.6,4.5,15.2,4.5c15.4,0,28-12.5,28-28C886.3-59.9,884.6-65.1,881.8-69.5z"/>
		</g>
		<g id="XMLID_264_">
			<path id="XMLID_255_" class="st0" d="M1786.7,264.1l27.5,14c5.2,2.7,7.3,9.1,4.7,14.3l-37.6,74c-2.7,5.2-9.1,7.3-14.3,4.7
				l-27.5-14c-5.2-2.7-7.3-9.1-4.7-14.3l37.6-74C1775.1,263.5,1781.5,261.4,1786.7,264.1z"/>
			<g id="XMLID_111_">
				<path id="XMLID_118_" class="st6" d="M1780.9,259.2l27.5,14c5.2,2.7,7.3,9.1,4.7,14.3l-37.6,74c-2.7,5.2-9.1,7.3-14.3,4.7
					l-27.5-14c-5.2-2.7-7.3-9.1-4.7-14.3l37.6-74C1769.2,258.7,1775.7,256.5,1780.9,259.2z"/>
				
					<rect id="XMLID_117_" x="1749.5" y="271.6" transform="matrix(0.8916 0.4529 -0.4529 0.8916 333.009 -768.696)" width="44.6" height="78.9"/>
				<path id="XMLID_116_" class="st8" d="M1783.1,266.8l17.9,9.1c0.5,0.2,1.1,0.1,1.3-0.4l0,0c0.2-0.5,0.1-1.1-0.4-1.3L1784,265
					c-0.5-0.2-1.1-0.1-1.3,0.4l0,0C1782.5,266,1782.7,266.6,1783.1,266.8z"/>
				<polygon id="XMLID_115_" class="st12" points="1769.9,265.8 1773.9,356.4 1809.6,286 				"/>
				<path id="XMLID_114_" class="st8" d="M1734.9,346.6l30.1,15.3c0.8,0.4,1.7,0.1,2.1-0.7l0,0c0.4-0.8,0.1-1.7-0.7-2.1l-30.1-15.3
					c-0.8-0.4-1.7-0.1-2.1,0.7l0,0C1733.9,345.3,1734.2,346.2,1734.9,346.6z"/>
				<circle id="XMLID_113_" class="st6" cx="1750.6" cy="352.8" r="6"/>
				<circle id="XMLID_112_" class="st8" cx="1750.6" cy="352.8" r="4.2"/>
			</g>
		</g>
		<g id="XMLID_4_">
			
				<rect id="XMLID_78_" x="710.8" y="90.4" transform="matrix(0.9026 -0.4305 0.4305 0.9026 -14.1937 364.2664)" class="st0" width="174" height="246.1"/>
			<g id="XMLID_3_">
				
					<rect id="XMLID_5_" x="709.3" y="86.3" transform="matrix(0.8996 -0.4368 0.4368 0.8996 -11.4502 368.8518)" class="st6" width="174" height="246.1"/>
				<g id="XMLID_6_">
					<path id="XMLID_7_" class="st13" d="M714.5,179l-15,7.3l-1.2-2.5l15-7.3L714.5,179z"/>
					<path id="XMLID_9_" class="st13" d="M712.7,166.3c-1.4-2.8-1.9-5.4-1.5-7.7c0.4-2.3,1.7-4,3.9-5.1c1.1-0.5,2.2-0.8,3.2-0.8
						s2,0.3,3,0.9l-0.8-2.4l2.7-1.3l8.4,17.4c1.1,2.3,1.3,4.4,0.7,6.3s-2.1,3.4-4.5,4.6c-0.8,0.4-1.8,0.7-2.9,1
						c-1.1,0.2-2.1,0.3-3.1,0.3l-0.4-2.9c0.7,0,1.6-0.1,2.5-0.2c0.9-0.2,1.8-0.5,2.5-0.8c1.4-0.7,2.3-1.6,2.6-2.7
						c0.3-1.1,0.1-2.4-0.7-3.9l-0.8-1.7c-0.2,1-0.6,1.9-1.3,2.7c-0.6,0.8-1.4,1.4-2.5,1.9c-2.2,1-4.2,1.1-6.2,0.1s-3.6-2.7-4.8-5.2
						L712.7,166.3z M716.1,165.1c0.9,1.8,1.9,3,3.2,3.7s2.7,0.7,4.2,0c1-0.5,1.7-1.1,2.1-1.8c0.4-0.8,0.7-1.6,0.7-2.6l-3.9-8.1
						c-0.8-0.5-1.6-0.9-2.5-1c-0.9-0.1-1.8,0-2.7,0.5c-1.5,0.7-2.4,1.9-2.5,3.6c-0.1,1.7,0.3,3.5,1.2,5.5L716.1,165.1z"/>
					<path id="XMLID_12_" class="st13" d="M743.9,162.1c-2.4,1.2-4.8,1.3-7,0.4c-2.2-0.9-4-2.7-5.2-5.3l-0.3-0.7
						c-1.2-2.5-1.5-4.9-0.8-7.3c0.7-2.4,2-4.1,4.1-5.1c2.4-1.1,4.5-1.3,6.4-0.5c1.9,0.8,3.4,2.5,4.6,4.8l1,2l-11.4,5.5v0.1
						c0.9,1.7,2,2.9,3.3,3.5c1.3,0.6,2.8,0.7,4.3,0c1.1-0.5,2-1.1,2.6-1.8c0.7-0.7,1.2-1.5,1.5-2.3l2.3,1.5
						c-0.3,0.9-0.9,1.8-1.8,2.7C746.4,160.6,745.3,161.4,743.9,162.1z M735.7,146.6c-1.1,0.5-1.8,1.4-2.1,2.7
						c-0.3,1.3-0.2,2.6,0.3,4.1l0.1,0.1l8.1-3.9l-0.2-0.4c-0.6-1.3-1.5-2.1-2.5-2.7S737.1,146,735.7,146.6z"/>
					<path id="XMLID_15_" class="st13" d="M761.7,153.4c-2.4,1.2-4.8,1.3-7,0.4s-4-2.7-5.2-5.3l-0.3-0.7c-1.2-2.5-1.5-4.9-0.8-7.3
						c0.7-2.4,2-4.1,4.1-5.1c2.4-1.1,4.5-1.3,6.4-0.5c1.9,0.8,3.4,2.5,4.6,4.8l1,2l-11.4,5.5v0.1c0.9,1.7,2,2.9,3.3,3.5
						c1.4,0.7,2.8,0.7,4.3,0c1.1-0.5,2-1.1,2.6-1.8c0.7-0.7,1.2-1.5,1.5-2.3l2.3,1.5c-0.3,0.9-0.9,1.8-1.8,2.7
						C764.4,151.8,763.2,152.7,761.7,153.4z M753.6,137.9c-1.1,0.5-1.8,1.4-2.1,2.7c-0.3,1.3-0.2,2.6,0.3,4.1l0.1,0.1l8.1-3.9
						l-0.2-0.4c-0.6-1.3-1.5-2.1-2.5-2.7S755,137.3,753.6,137.9z"/>
					<path id="XMLID_18_" class="st13" d="M759.7,125.2l-1-2.1l5.9-2.8l7.1,14.7l2-1l1.5-6.5l-1.7,0.6l-1-2.1l7.4-3.6l1,2.1L779,126
						l-2,7.8l9.1,4.4l2.2-0.6l1,2l-7.3,3.5l-1-2l1.5-1l-7.5-3.6l-2.1,1l2.7,5.6l2.9-0.8l1,2l-8.5,4.1l-1-2l2.4-1.7l-9.8-20.3
						L759.7,125.2z"/>
					<path id="XMLID_20_" class="st13" d="M800.9,114.9l-1.5,1l2,21.2c0.1,1.4,0,2.7-0.4,4s-1.3,2.3-2.7,2.9c-0.2,0.1-0.6,0.2-1,0.4
						c-0.4,0.1-0.8,0.2-1,0.3l-0.9-2.7c-0.1,0,0.1-0.1,0.6-0.2s0.8-0.3,0.9-0.4c0.7-0.3,1.1-0.9,1.2-1.7c0.1-0.8,0.2-1.7,0.1-2.6
						l-0.1-2.2l-13-12.1l-1.7,0.5l-1-2.1l7.1-3.4l1,2.1l-1.8,1.3l7.2,7.2l1.7,2h0.1l-1.6-12.7l-2.2,0.6l-1-2.1l7.1-3.4L800.9,114.9z
						"/>
					<path id="XMLID_22_" class="st13" d="M729.3,196.5c1.2,2.4,0.6,5.2-1.6,7c3.3-0.8,6.2,0.6,7.6,3.6c1.9,4-0.4,8.2-5.8,10.8
						l-11.5,5.6l-11.3-23.3l11.1-5.4C723.1,192.3,727.5,192.9,729.3,196.5z M723.5,200.6c-0.7-1.4-2.1-1.7-3.8-0.9L715,202l2.2,4.5
						l4.7-2.3C723.6,203.5,724.3,202.1,723.5,200.6z M728.7,209.4c-0.7-1.5-2.5-1.8-4.6-0.7l-4.7,2.3l2.4,4.9l4.7-2.3
						C728.6,212.6,729.5,211,728.7,209.4z"/>
					<path id="XMLID_26_" class="st13" d="M744.7,188.1l2.6,5.4c-3.5,1.3-4.9,3.8-4,6.4l4.5,9.2l-5.9,2.9l-8.7-18l5.9-2.9l1.5,3
						C740.7,191.4,742.2,189.3,744.7,188.1z"/>
					<path id="XMLID_28_" class="st13" d="M770,187.2c2.7,5.6,0.5,11.1-5.4,14c-5.9,2.9-11.6,1.1-14.3-4.5
						c-2.7-5.5-0.6-11.1,5.4-13.9C761.6,179.9,767.3,181.7,770,187.2z M756.3,193.9c1.3,2.7,3.7,3.7,6,2.6c2.3-1.1,3-3.7,1.7-6.4
						s-3.7-3.7-6.1-2.6C755.7,188.7,755,191.3,756.3,193.9z"/>
					<path id="XMLID_31_" class="st13" d="M798.4,184.9c-2.7,1.3-6.2,1.2-8.6-0.3c-0.2,2.8-2.4,5.6-5,6.9c-4.7,2.3-9.4,0.6-11.8-4.3
						l-5-10.2l5.9-2.8l4.8,10c0.9,1.9,2.6,2.5,4.4,1.6c1.7-0.8,2.3-2.6,1.4-4.5l-4.8-10l5.9-2.8l4.8,10c0.9,1.9,2.7,2.5,4.5,1.6
						c1.7-0.8,2.2-2.6,1.3-4.4l-4.8-10l5.9-2.8l5,10.2C804.6,177.9,803.1,182.6,798.4,184.9z"/>
					<path id="XMLID_33_" class="st13" d="M822.9,158.7l5.5,11.4l-5.9,2.9l-4.7-9.7c-1-2-2.8-2.7-4.7-1.8c-2,1-2.6,3-1.9,5.1
						l4.6,9.5L810,179l-8.7-18l5.9-2.9l1.4,2.9c0.3-2.7,1.8-4.8,4.4-6C817,153.1,820.9,154.5,822.9,158.7z"/>
					<path id="XMLID_35_" class="st13" d="M841.6,141.4l7.8,16.1c2.5,5.1,0.2,10.5-5.4,13.2c-2.7,1.3-6.5,1.9-9.3,1.6l-0.6-4.8
						c2.2,0.2,5-0.3,6.9-1.1c2.6-1.3,3.6-3.7,2.4-6.1l-1.3-2.6c-0.3,2.6-1.7,4.6-4.3,5.9c-4.1,2-8,0.6-10.1-3.6l-4.7-9.6l5.9-2.9
						l3.8,7.9c1,2,2.7,2.7,4.6,1.8c2.2-1.1,2.7-3.3,1.5-5.9l-3.4-7L841.6,141.4z"/>
					<path id="XMLID_37_" class="st13" d="M858.4,152.3c0.8,1.7,0.2,3.5-1.5,4.3c-1.7,0.8-3.4,0.2-4.2-1.5s-0.2-3.4,1.4-4.2
						C855.8,150,857.6,150.6,858.4,152.3z M848.5,131.7l2.9,6l3.4,9.7l-3.6,1.7l-5.5-8.7l-2.9-6L848.5,131.7z"/>
				</g>
			</g>
		</g>
		<g id="XMLID_110_">
			<path id="XMLID_257_" class="st0" d="M1500-121c15.6,4,29.2,10.3,38.7,19.3c9.7,9.2,15,21.3,13.6,36.7c-0.8,9.2-4,19.5-10.1,31.1
				c1.5,2,2.9,4.1,4.1,6.3c4,7.5,6.1,16.5,6.9,26.2c2.3,29.9-8.5,67.4-19.7,91.6l-0.6,1.3c14.3,1.1,25.6,16.6,25.6,35.6
				c0,19.7-12.2,35.7-27.3,35.7c-15.1,0-27.3-16-27.3-35.7c0-19.3,11.7-35,26.3-35.7l1-2.3c11-23.9,21.7-60.9,19.5-90.4
				c-0.7-9.4-2.8-18.1-6.6-25.3c-1-1.8-2-3.5-3.3-5.1c-1.5,2.7-3.1,5.4-4.9,8.3c-12.2,19.3-24.7,29.5-36.1,33.6V7.7
				c10.7-4.1,22.4-14,34-32.4c2-3.1,3.7-6.1,5.3-9c-3.2-3.8-7.2-6.9-12.1-9.1c-7.1-3.3-16.1-4.7-27.2-3.9v-2.4
				c11.5-0.8,20.8,0.7,28.2,4.1c4.9,2.3,9,5.3,12.3,9c5.6-10.9,8.6-20.7,9.4-29.3c1.3-14.6-3.7-26-12.9-34.8c-9-8.6-22-14.6-37-18.5
				v-2.4H1500z M1422.8-125.1c25.1-2.8,53.1-2,76.6,3.9l0.7,0.2v2.5c-0.4-0.1-0.9-0.2-1.3-0.3c-23.3-5.8-51.1-6.6-76-3.8v206
				c0,4.2-3.5,7.7-7.7,7.7H1250v-229.6h132v-3.9h-132v-62.1h196.4c9.5,0,12.3,4.4,8.5,10.5l-32.9,51.6h-22.9v3.9h16.1
				c4.2,0,7.7,3.5,7.7,7.7L1422.8-125.1L1422.8-125.1z M1500,10.2V7.7c-4.5,1.7-8.8,2.5-12.8,2.3c-9.7-0.3-17.6-5.5-22.2-12.6
				c-4.6-7.1-5.9-16.2-2.3-24.3c4.3-9.8,15.8-18.2,37.2-19.8h0.1v-2.4h-0.3c-22.4,1.7-34.5,10.7-39.2,21.3
				c-3.9,8.8-2.5,18.7,2.5,26.5s13.6,13.4,24.1,13.7C1491.2,12.5,1495.5,11.9,1500,10.2z M1250,91h-165.2c-4.2,0-7.7-3.5-7.7-7.7
				v-214.1c0-4.2,3.5-7.7,7.7-7.7h16.2v-3.9h-23.8l-29.3-46.3c-6.6-10.4-5.3-15.8,5.1-15.8h197v62.1h-132.1v3.9H1250V91z"/>
			<path id="XMLID_251_" class="st6" d="M1494.2-125.9c15.6,4,29.2,10.3,38.7,19.3c9.7,9.2,15,21.3,13.6,36.7
				c-0.8,9.2-4,19.5-10.1,31.1c1.5,2,2.9,4.1,4.1,6.3c4,7.5,6.1,16.5,6.9,26.2c2.3,29.9-8.5,67.4-19.7,91.6l-4.5,10.6l-0.6-4.7
				l2.9-7c11-23.9,21.7-60.9,19.5-90.4c-0.7-9.4-2.8-18.1-6.6-25.3c-1-1.8-2-3.5-3.3-5.1c-1.5,2.7-3.1,5.4-4.9,8.3
				C1518-9,1505.5,1.2,1494.1,5.3V2.8c10.7-4.1,22.4-14,34-32.4c2-3.1,3.7-6.1,5.3-9c-3.2-3.8-7.2-6.9-12.1-9.1
				c-7.1-3.3-16.1-4.7-27.2-3.9V-54c11.5-0.8,20.8,0.7,28.2,4.1c4.9,2.3,9,5.3,12.3,9c5.6-10.9,8.6-20.7,9.4-29.3
				c1.3-14.6-3.7-26-12.9-34.8c-9-8.6-22-14.6-37-18.5L1494.2-125.9L1494.2-125.9z M1400.4-127.6c28.8-5.2,64.3-5.7,93.1,1.5
				l0.7,0.2v2.5c-0.4-0.1-0.9-0.2-1.3-0.3c-28.5-7.1-63.7-6.7-92.1-1.5L1400.4-127.6L1400.4-127.6z M1494.2,5.4
				c-4.5,1.6-8.8,2.3-12.8,2.2c-10.6-0.3-19.1-6-24.1-13.7c-5-7.8-6.4-17.7-2.5-26.5c4.6-10.6,16.7-19.5,39.2-21.3h0.3v2.4h-0.1
				c-21.4,1.7-32.9,10-37.2,19.8c-3.5,8.1-2.2,17.1,2.3,24.3c4.6,7.1,12.5,12.3,22.2,12.6c4,0.1,8.3-0.6,12.8-2.3v2.5H1494.2z"/>
			<g id="XMLID_148_">
				<path id="XMLID_250_" class="st6" d="M1079-143.4h330.2c4.2,0,7.7,3.5,7.7,7.7V78.5c0,4.2-3.5,7.7-7.7,7.7H1079
					c-4.2,0-7.7-3.5-7.7-7.7v-214.2C1071.3-139.9,1074.8-143.4,1079-143.4z"/>
				<path id="XMLID_249_" class="st8" d="M1094-143.4h19.1v10.9c0,1-0.8,1.8-1.8,1.8h-15.5c-1,0-1.8-0.8-1.8-1.8V-143.4L1094-143.4z
					"/>
				<path id="XMLID_248_" class="st8" d="M1375.1-143.4h19.1v10.9c0,1-0.8,1.8-1.8,1.8h-15.5c-1,0-1.8-0.8-1.8-1.8V-143.4z"/>
				<path id="XMLID_247_" class="st14" d="M1047.1-209.5h393.4c9.5,0,12.3,4.4,8.5,10.5l-33,51.7h-344.7l-29.3-46.4
					C1035.4-204.1,1036.7-209.5,1047.1-209.5z"/>
				<polygon id="XMLID_246_" points="1428.8,-193.7 1404.9,-154.3 1082.7,-154.3 1058.6,-193.7 				"/>
				<path id="XMLID_245_" class="st6" d="M1044.9-208h398.7c0.8,0,1.5,0.7,1.5,1.5l0,0c0,0.8-0.7,1.5-1.5,1.5h-398.7
					c-0.8,0-1.5-0.7-1.5-1.5l0,0C1043.4-207.3,1044.1-208,1044.9-208z"/>
				<path id="XMLID_244_" class="st6" d="M1096.7-153.3h13.7c0.9,0,1.6,0.7,1.6,1.6v16.2c0,0.9-0.7,1.6-1.6,1.6h-13.7
					c-0.9,0-1.6-0.7-1.6-1.6v-16.2C1095.1-152.6,1095.9-153.3,1096.7-153.3z"/>
				<path id="XMLID_243_" class="st6" d="M1377.8-153.3h13.7c0.9,0,1.6,0.7,1.6,1.6v16.2c0,0.9-0.7,1.6-1.6,1.6h-13.7
					c-0.9,0-1.6-0.7-1.6-1.6v-16.2C1376.2-152.6,1376.9-153.3,1377.8-153.3z"/>
				<path id="XMLID_242_" class="st14" d="M1383.3-112.8h10.7c1.2,0,2.2,1,2.2,2.2v7.9c0,1.2-1,2.2-2.2,2.2h-10.7
					c-1.2,0-2.2-1-2.2-2.2v-7.9C1381.1-111.8,1382.1-112.8,1383.3-112.8z"/>
				<path id="XMLID_241_" class="st14" d="M1383.8-97.7h9.7c1.5,0,2.7,1.2,2.7,2.7v10.7c0,1.5-1.2,2.7-2.7,2.7h-9.7
					c-1.5,0-2.7-1.2-2.7-2.7V-95C1381.1-96.5,1382.3-97.7,1383.8-97.7z"/>
				<path id="XMLID_240_" class="st14" d="M1383.8-78.8h9.7c1.5,0,2.7,1.2,2.7,2.7v10.7c0,1.5-1.2,2.7-2.7,2.7h-9.7
					c-1.5,0-2.7-1.2-2.7-2.7v-10.7C1381.1-77.6,1382.3-78.8,1383.8-78.8z"/>
				<path id="XMLID_239_" class="st14" d="M1383.8-59.9h9.7c1.5,0,2.7,1.2,2.7,2.7v10.7c0,1.5-1.2,2.7-2.7,2.7h-9.7
					c-1.5,0-2.7-1.2-2.7-2.7v-10.7C1381.1-58.7,1382.3-59.9,1383.8-59.9z"/>
				<path id="XMLID_238_" class="st14" d="M1383.8-41h9.7c1.5,0,2.7,1.2,2.7,2.7v10.7c0,1.5-1.2,2.7-2.7,2.7h-9.7
					c-1.5,0-2.7-1.2-2.7-2.7v-10.7C1381.1-39.8,1382.3-41,1383.8-41z"/>
				<path id="XMLID_237_" class="st14" d="M1383.8-22.1h9.7c1.5,0,2.7,1.2,2.7,2.7v10.7c0,1.5-1.2,2.7-2.7,2.7h-9.7
					c-1.5,0-2.7-1.2-2.7-2.7v-10.7C1381.1-20.8,1382.3-22.1,1383.8-22.1z"/>
				<path id="XMLID_236_" class="st14" d="M1364.5-112.8h10.7c1.2,0,2.2,1,2.2,2.2v7.9c0,1.2-1,2.2-2.2,2.2h-10.7
					c-1.2,0-2.2-1-2.2-2.2v-7.9C1362.3-111.8,1363.2-112.8,1364.5-112.8z"/>
				<path id="XMLID_235_" class="st14" d="M1347.7-97.7h26.7c1.6,0,2.9,1.3,2.9,2.9v10.4c0,1.6-1.3,2.9-2.9,2.9h-26.7
					c-1.6,0-2.9-1.3-2.9-2.9v-10.4C1344.8-96.4,1346.1-97.7,1347.7-97.7z"/>
				<path id="XMLID_234_" class="st14" d="M1360-78.8h14.5c1.6,0,2.9,1.3,2.9,2.9v10.4c0,1.6-1.3,2.9-2.9,2.9H1360
					c-1.6,0-2.9-1.3-2.9-2.9v-10.4C1357.1-77.5,1358.4-78.8,1360-78.8z"/>
				<path id="XMLID_233_" class="st14" d="M1345.6-59.9h28.8c1.6,0,2.9,1.3,2.9,2.9v10.4c0,1.6-1.3,2.9-2.9,2.9h-28.8
					c-1.6,0-2.9-1.3-2.9-2.9V-57C1342.7-58.6,1344-59.9,1345.6-59.9z"/>
				<path id="XMLID_232_" class="st14" d="M1364.9-41h9.7c1.5,0,2.7,1.2,2.7,2.7v10.7c0,1.5-1.2,2.7-2.7,2.7h-9.7
					c-1.5,0-2.7-1.2-2.7-2.7v-10.7C1362.3-39.8,1363.5-41,1364.9-41z"/>
				<path id="XMLID_231_" class="st14" d="M1364.9-22.1h9.7c1.5,0,2.7,1.2,2.7,2.7v10.7c0,1.5-1.2,2.7-2.7,2.7h-9.7
					c-1.5,0-2.7-1.2-2.7-2.7v-10.7C1362.3-20.8,1363.5-22.1,1364.9-22.1z"/>
				<path id="XMLID_230_" class="st14" d="M1347.1-112.8h9.2c1.2,0,2.2,1,2.2,2.2v7.9c0,1.2-1,2.2-2.2,2.2h-9.2
					c-1.2,0-2.2-1-2.2-2.2v-7.9C1344.8-111.8,1345.8-112.8,1347.1-112.8z"/>
				<path id="XMLID_229_" class="st14" d="M1329.4-112.8h9.2c1.2,0,2.2,1,2.2,2.2v7.9c0,1.2-1,2.2-2.2,2.2h-9.2
					c-1.2,0-2.2-1-2.2-2.2v-7.9C1327.2-111.8,1328.2-112.8,1329.4-112.8z"/>
				<path id="XMLID_228_" class="st14" d="M1311.7-112.8h9.2c1.2,0,2.2,1,2.2,2.2v7.9c0,1.2-1,2.2-2.2,2.2h-9.2
					c-1.2,0-2.2-1-2.2-2.2v-7.9C1309.5-111.8,1310.5-112.8,1311.7-112.8z"/>
				<path id="XMLID_227_" class="st14" d="M1294-112.8h9.2c1.2,0,2.2,1,2.2,2.2v7.9c0,1.2-1,2.2-2.2,2.2h-9.2c-1.2,0-2.2-1-2.2-2.2
					v-7.9C1291.8-111.8,1292.8-112.8,1294-112.8z"/>
				<path id="XMLID_226_" class="st14" d="M1276.3-112.8h9.2c1.2,0,2.2,1,2.2,2.2v7.9c0,1.2-1,2.2-2.2,2.2h-9.2
					c-1.2,0-2.2-1-2.2-2.2v-7.9C1274.1-111.8,1275.1-112.8,1276.3-112.8z"/>
				<path id="XMLID_225_" class="st14" d="M1258.6-112.8h9.2c1.2,0,2.2,1,2.2,2.2v7.9c0,1.2-1,2.2-2.2,2.2h-9.2
					c-1.2,0-2.2-1-2.2-2.2v-7.9C1256.4-111.8,1257.4-112.8,1258.6-112.8z"/>
				<path id="XMLID_224_" class="st14" d="M1240.9-112.8h9.2c1.2,0,2.2,1,2.2,2.2v7.9c0,1.2-1,2.2-2.2,2.2h-9.2
					c-1.2,0-2.2-1-2.2-2.2v-7.9C1238.7-111.8,1239.7-112.8,1240.9-112.8z"/>
				<path id="XMLID_223_" class="st14" d="M1223.3-112.8h9.2c1.2,0,2.2,1,2.2,2.2v7.9c0,1.2-1,2.2-2.2,2.2h-9.2
					c-1.2,0-2.2-1-2.2-2.2v-7.9C1221.1-111.8,1222-112.8,1223.3-112.8z"/>
				<path id="XMLID_222_" class="st14" d="M1205.6-112.8h9.2c1.2,0,2.2,1,2.2,2.2v7.9c0,1.2-1,2.2-2.2,2.2h-9.2
					c-1.2,0-2.2-1-2.2-2.2v-7.9C1203.4-111.8,1204.4-112.8,1205.6-112.8z"/>
				<path id="XMLID_221_" class="st14" d="M1187.9-112.8h9.2c1.2,0,2.2,1,2.2,2.2v7.9c0,1.2-1,2.2-2.2,2.2h-9.2
					c-1.2,0-2.2-1-2.2-2.2v-7.9C1185.7-111.8,1186.7-112.8,1187.9-112.8z"/>
				<path id="XMLID_220_" class="st14" d="M1170.2-112.8h9.2c1.2,0,2.2,1,2.2,2.2v7.9c0,1.2-1,2.2-2.2,2.2h-9.2
					c-1.2,0-2.2-1-2.2-2.2v-7.9C1168-111.8,1169-112.8,1170.2-112.8z"/>
				<path id="XMLID_219_" class="st14" d="M1152.5-112.8h9.2c1.2,0,2.2,1,2.2,2.2v7.9c0,1.2-1,2.2-2.2,2.2h-9.2
					c-1.2,0-2.2-1-2.2-2.2v-7.9C1150.3-111.8,1151.3-112.8,1152.5-112.8z"/>
				<path id="XMLID_218_" class="st14" d="M1134.8-112.8h9.2c1.2,0,2.2,1,2.2,2.2v7.9c0,1.2-1,2.2-2.2,2.2h-9.2
					c-1.2,0-2.2-1-2.2-2.2v-7.9C1132.6-111.8,1133.6-112.8,1134.8-112.8z"/>
				<path id="XMLID_217_" class="st14" d="M1117.2-112.8h9.2c1.2,0,2.2,1,2.2,2.2v7.9c0,1.2-1,2.2-2.2,2.2h-9.2
					c-1.2,0-2.2-1-2.2-2.2v-7.9C1114.9-111.8,1115.9-112.8,1117.2-112.8z"/>
				<path id="XMLID_216_" class="st14" d="M1097.3-112.8h10.7c1.2,0,2.2,1,2.2,2.2v7.9c0,1.2-1,2.2-2.2,2.2h-10.7
					c-1.2,0-2.2-1-2.2-2.2v-7.9C1095.1-111.8,1096.1-112.8,1097.3-112.8z"/>
				<path id="XMLID_215_" class="st14" d="M1328.6-97.7h9.5c1.5,0,2.6,1.2,2.6,2.6v10.8c0,1.5-1.2,2.6-2.6,2.6h-9.5
					c-1.5,0-2.6-1.2-2.6-2.6V-95C1326-96.5,1327.2-97.7,1328.6-97.7z"/>
				<path id="XMLID_214_" class="st14" d="M1309.5-97.7h9.5c1.5,0,2.6,1.2,2.6,2.6v10.8c0,1.5-1.2,2.6-2.6,2.6h-9.5
					c-1.5,0-2.6-1.2-2.6-2.6V-95C1306.8-96.5,1308-97.7,1309.5-97.7z"/>
				<path id="XMLID_213_" class="st14" d="M1290.3-97.7h9.5c1.5,0,2.6,1.2,2.6,2.6v10.8c0,1.5-1.2,2.6-2.6,2.6h-9.5
					c-1.5,0-2.6-1.2-2.6-2.6V-95C1287.6-96.5,1288.8-97.7,1290.3-97.7z"/>
				<path id="XMLID_212_" class="st14" d="M1271.1-97.7h9.5c1.5,0,2.6,1.2,2.6,2.6v10.8c0,1.5-1.2,2.6-2.6,2.6h-9.5
					c-1.5,0-2.6-1.2-2.6-2.6V-95C1268.4-96.5,1269.6-97.7,1271.1-97.7z"/>
				<path id="XMLID_211_" class="st14" d="M1251.9-97.7h9.5c1.5,0,2.6,1.2,2.6,2.6v10.8c0,1.5-1.2,2.6-2.6,2.6h-9.5
					c-1.5,0-2.6-1.2-2.6-2.6V-95C1249.3-96.5,1250.4-97.7,1251.9-97.7z"/>
				<path id="XMLID_210_" class="st14" d="M1232.7-97.7h9.5c1.5,0,2.6,1.2,2.6,2.6v10.8c0,1.5-1.2,2.6-2.6,2.6h-9.5
					c-1.5,0-2.6-1.2-2.6-2.6V-95C1230.1-96.5,1231.3-97.7,1232.7-97.7z"/>
				<path id="XMLID_209_" class="st14" d="M1213.5-97.7h9.5c1.5,0,2.6,1.2,2.6,2.6v10.8c0,1.5-1.2,2.6-2.6,2.6h-9.5
					c-1.5,0-2.6-1.2-2.6-2.6V-95C1210.9-96.5,1212.1-97.7,1213.5-97.7z"/>
				<path id="XMLID_208_" class="st14" d="M1194.3-97.7h9.5c1.5,0,2.6,1.2,2.6,2.6v10.8c0,1.5-1.2,2.6-2.6,2.6h-9.5
					c-1.5,0-2.6-1.2-2.6-2.6V-95C1191.7-96.5,1192.9-97.7,1194.3-97.7z"/>
				<path id="XMLID_207_" class="st14" d="M1175.2-97.7h9.5c1.5,0,2.6,1.2,2.6,2.6v10.8c0,1.5-1.2,2.6-2.6,2.6h-9.5
					c-1.5,0-2.6-1.2-2.6-2.6V-95C1172.5-96.5,1173.7-97.7,1175.2-97.7z"/>
				<path id="XMLID_206_" class="st14" d="M1156-97.7h9.5c1.5,0,2.6,1.2,2.6,2.6v10.8c0,1.5-1.2,2.6-2.6,2.6h-9.5
					c-1.5,0-2.6-1.2-2.6-2.6V-95C1153.3-96.5,1154.5-97.7,1156-97.7z"/>
				<path id="XMLID_205_" class="st14" d="M1136.8-97.7h9.5c1.5,0,2.6,1.2,2.6,2.6v10.8c0,1.5-1.2,2.6-2.6,2.6h-9.5
					c-1.5,0-2.6-1.2-2.6-2.6V-95C1134.1-96.5,1135.3-97.7,1136.8-97.7z"/>
				<path id="XMLID_204_" class="st14" d="M1117.6-97.7h9.5c1.5,0,2.6,1.2,2.6,2.6v10.8c0,1.5-1.2,2.6-2.6,2.6h-9.5
					c-1.5,0-2.6-1.2-2.6-2.6V-95C1114.9-96.5,1116.1-97.7,1117.6-97.7z"/>
				<path id="XMLID_203_" class="st14" d="M1097.8-97.7h9.7c1.5,0,2.7,1.2,2.7,2.7v10.7c0,1.5-1.2,2.7-2.7,2.7h-9.7
					c-1.5,0-2.7-1.2-2.7-2.7V-95C1095.1-96.5,1096.3-97.7,1097.8-97.7z"/>
				<path id="XMLID_202_" class="st14" d="M1098-78.8h19.9c1.6,0,2.9,1.3,2.9,2.9v10.4c0,1.6-1.3,2.9-2.9,2.9H1098
					c-1.6,0-2.9-1.3-2.9-2.9v-10.4C1095.1-77.5,1096.4-78.8,1098-78.8z"/>
				<path id="XMLID_201_" class="st14" d="M1098-59.9h23.7c1.6,0,2.9,1.3,2.9,2.9v10.4c0,1.6-1.3,2.9-2.9,2.9H1098
					c-1.6,0-2.9-1.3-2.9-2.9V-57C1095.1-58.6,1096.4-59.9,1098-59.9z"/>
				<path id="XMLID_200_" class="st14" d="M1098-41h34c1.6,0,2.9,1.3,2.9,2.9v10.4c0,1.6-1.3,2.9-2.9,2.9h-34
					c-1.6,0-2.9-1.3-2.9-2.9v-10.4C1095.1-39.7,1096.4-41,1098-41z"/>
				<path id="XMLID_199_" class="st14" d="M1098-22.1h14.1c1.6,0,2.9,1.3,2.9,2.9v10.4c0,1.6-1.3,2.9-2.9,2.9H1098
					c-1.6,0-2.9-1.3-2.9-2.9v-10.4C1095.1-20.8,1096.4-22.1,1098-22.1z"/>
				<path id="XMLID_198_" class="st14" d="M1126-78.8h10.2c1.6,0,2.8,1.3,2.8,2.8v10.5c0,1.6-1.3,2.8-2.8,2.8H1126
					c-1.6,0-2.8-1.3-2.8-2.8V-76C1123.2-77.5,1124.4-78.8,1126-78.8z"/>
				<path id="XMLID_197_" class="st14" d="M1145.5-78.8h10.2c1.6,0,2.8,1.3,2.8,2.8v10.5c0,1.6-1.3,2.8-2.8,2.8h-10.2
					c-1.6,0-2.8-1.3-2.8-2.8V-76C1142.7-77.5,1144-78.8,1145.5-78.8z"/>
				<path id="XMLID_196_" class="st14" d="M1165.1-78.8h10.2c1.6,0,2.8,1.3,2.8,2.8v10.5c0,1.6-1.3,2.8-2.8,2.8h-10.2
					c-1.6,0-2.8-1.3-2.8-2.8V-76C1162.3-77.5,1163.5-78.8,1165.1-78.8z"/>
				<path id="XMLID_195_" class="st14" d="M1184.6-78.8h10.2c1.6,0,2.8,1.3,2.8,2.8v10.5c0,1.6-1.3,2.8-2.8,2.8h-10.2
					c-1.6,0-2.8-1.3-2.8-2.8V-76C1181.8-77.5,1183.1-78.8,1184.6-78.8z"/>
				<path id="XMLID_194_" class="st14" d="M1204.2-78.8h10.2c1.6,0,2.8,1.3,2.8,2.8v10.5c0,1.6-1.3,2.8-2.8,2.8h-10.2
					c-1.6,0-2.8-1.3-2.8-2.8V-76C1201.4-77.5,1202.6-78.8,1204.2-78.8z"/>
				<path id="XMLID_193_" class="st14" d="M1223.7-78.8h10.2c1.6,0,2.8,1.3,2.8,2.8v10.5c0,1.6-1.3,2.8-2.8,2.8h-10.2
					c-1.6,0-2.8-1.3-2.8-2.8V-76C1220.9-77.5,1222.2-78.8,1223.7-78.8z"/>
				<path id="XMLID_192_" class="st14" d="M1243.3-78.8h10.2c1.6,0,2.8,1.3,2.8,2.8v10.5c0,1.6-1.3,2.8-2.8,2.8h-10.2
					c-1.6,0-2.8-1.3-2.8-2.8V-76C1240.5-77.5,1241.7-78.8,1243.3-78.8z"/>
				<path id="XMLID_191_" class="st14" d="M1262.8-78.8h10.2c1.6,0,2.8,1.3,2.8,2.8v10.5c0,1.6-1.3,2.8-2.8,2.8h-10.2
					c-1.6,0-2.8-1.3-2.8-2.8V-76C1260-77.5,1261.3-78.8,1262.8-78.8z"/>
				<path id="XMLID_190_" class="st14" d="M1282.4-78.8h10.2c1.6,0,2.8,1.3,2.8,2.8v10.5c0,1.6-1.3,2.8-2.8,2.8h-10.2
					c-1.6,0-2.8-1.3-2.8-2.8V-76C1279.5-77.5,1280.8-78.8,1282.4-78.8z"/>
				<path id="XMLID_189_" class="st14" d="M1301.9-78.8h10.2c1.6,0,2.8,1.3,2.8,2.8v10.5c0,1.6-1.3,2.8-2.8,2.8h-10.2
					c-1.6,0-2.8-1.3-2.8-2.8V-76C1299.1-77.5,1300.4-78.8,1301.9-78.8z"/>
				<path id="XMLID_188_" class="st14" d="M1321.5-78.8h10.2c1.6,0,2.8,1.3,2.8,2.8v10.5c0,1.6-1.3,2.8-2.8,2.8h-10.2
					c-1.6,0-2.8-1.3-2.8-2.8V-76C1318.6-77.5,1319.9-78.8,1321.5-78.8z"/>
				<path id="XMLID_187_" class="st14" d="M1341-78.8h10.2c1.6,0,2.8,1.3,2.8,2.8v10.5c0,1.6-1.3,2.8-2.8,2.8H1341
					c-1.6,0-2.8-1.3-2.8-2.8V-76C1338.2-77.5,1339.5-78.8,1341-78.8z"/>
				<path id="XMLID_186_" class="st14" d="M1131.4-59.9h10.2c1.6,0,2.8,1.3,2.8,2.8v10.5c0,1.6-1.3,2.8-2.8,2.8h-10.2
					c-1.6,0-2.8-1.3-2.8-2.8V-57C1128.6-58.6,1129.9-59.9,1131.4-59.9z"/>
				<path id="XMLID_185_" class="st14" d="M1151-59.9h10.2c1.6,0,2.8,1.3,2.8,2.8v10.5c0,1.6-1.3,2.8-2.8,2.8H1151
					c-1.6,0-2.8-1.3-2.8-2.8V-57C1148.2-58.6,1149.4-59.9,1151-59.9z"/>
				<path id="XMLID_184_" class="st14" d="M1170.5-59.9h10.2c1.6,0,2.8,1.3,2.8,2.8v10.5c0,1.6-1.3,2.8-2.8,2.8h-10.2
					c-1.6,0-2.8-1.3-2.8-2.8V-57C1167.7-58.6,1169-59.9,1170.5-59.9z"/>
				<path id="XMLID_183_" class="st14" d="M1190.1-59.9h10.2c1.6,0,2.8,1.3,2.8,2.8v10.5c0,1.6-1.3,2.8-2.8,2.8h-10.2
					c-1.6,0-2.8-1.3-2.8-2.8V-57C1187.2-58.6,1188.5-59.9,1190.1-59.9z"/>
				<path id="XMLID_182_" class="st14" d="M1209.6-59.9h10.2c1.6,0,2.8,1.3,2.8,2.8v10.5c0,1.6-1.3,2.8-2.8,2.8h-10.2
					c-1.6,0-2.8-1.3-2.8-2.8V-57C1206.8-58.6,1208.1-59.9,1209.6-59.9z"/>
				<path id="XMLID_181_" class="st14" d="M1229.2-59.9h10.2c1.6,0,2.8,1.3,2.8,2.8v10.5c0,1.6-1.3,2.8-2.8,2.8h-10.2
					c-1.6,0-2.8-1.3-2.8-2.8V-57C1226.3-58.6,1227.6-59.9,1229.2-59.9z"/>
				<path id="XMLID_180_" class="st14" d="M1248.7-59.9h10.2c1.6,0,2.8,1.3,2.8,2.8v10.5c0,1.6-1.3,2.8-2.8,2.8h-10.2
					c-1.6,0-2.8-1.3-2.8-2.8V-57C1245.9-58.6,1247.2-59.9,1248.7-59.9z"/>
				<path id="XMLID_179_" class="st14" d="M1268.3-59.9h10.2c1.6,0,2.8,1.3,2.8,2.8v10.5c0,1.6-1.3,2.8-2.8,2.8h-10.2
					c-1.6,0-2.8-1.3-2.8-2.8V-57C1265.4-58.6,1266.7-59.9,1268.3-59.9z"/>
				<path id="XMLID_178_" class="st14" d="M1287.8-59.9h10.2c1.6,0,2.8,1.3,2.8,2.8v10.5c0,1.6-1.3,2.8-2.8,2.8h-10.2
					c-1.6,0-2.8-1.3-2.8-2.8V-57C1285-58.6,1286.3-59.9,1287.8-59.9z"/>
				<path id="XMLID_177_" class="st14" d="M1307.4-59.9h10.2c1.6,0,2.8,1.3,2.8,2.8v10.5c0,1.6-1.3,2.8-2.8,2.8h-10.2
					c-1.6,0-2.8-1.3-2.8-2.8V-57C1304.5-58.6,1305.8-59.9,1307.4-59.9z"/>
				<path id="XMLID_176_" class="st14" d="M1326.9-59.9h10.2c1.6,0,2.8,1.3,2.8,2.8v10.5c0,1.6-1.3,2.8-2.8,2.8h-10.2
					c-1.6,0-2.8-1.3-2.8-2.8V-57C1324.1-58.6,1325.4-59.9,1326.9-59.9z"/>
				<path id="XMLID_175_" class="st14" d="M1141.7-41h10.2c1.6,0,2.8,1.3,2.8,2.8v10.5c0,1.6-1.3,2.8-2.8,2.8h-10.2
					c-1.6,0-2.8-1.3-2.8-2.8v-10.5C1138.8-39.7,1140.1-41,1141.7-41z"/>
				<path id="XMLID_174_" class="st14" d="M1161.2-41h10.2c1.6,0,2.8,1.3,2.8,2.8v10.5c0,1.6-1.3,2.8-2.8,2.8h-10.2
					c-1.6,0-2.8-1.3-2.8-2.8v-10.5C1158.4-39.7,1159.7-41,1161.2-41z"/>
				<path id="XMLID_173_" class="st14" d="M1180.8-41h10.2c1.6,0,2.8,1.3,2.8,2.8v10.5c0,1.6-1.3,2.8-2.8,2.8h-10.2
					c-1.6,0-2.8-1.3-2.8-2.8v-10.5C1177.9-39.7,1179.2-41,1180.8-41z"/>
				<path id="XMLID_172_" class="st14" d="M1200.3-41h10.2c1.6,0,2.8,1.3,2.8,2.8v10.5c0,1.6-1.3,2.8-2.8,2.8h-10.2
					c-1.6,0-2.8-1.3-2.8-2.8v-10.5C1197.5-39.7,1198.8-41,1200.3-41z"/>
				<path id="XMLID_171_" class="st14" d="M1219.9-41h10.1c1.6,0,2.8,1.3,2.8,2.8v10.5c0,1.6-1.3,2.8-2.8,2.8h-10.2
					c-1.6,0-2.8-1.3-2.8-2.8v-10.5C1217-39.7,1218.3-41,1219.9-41z"/>
				<path id="XMLID_170_" class="st14" d="M1239.4-41h10.2c1.6,0,2.8,1.3,2.8,2.8v10.5c0,1.6-1.3,2.8-2.8,2.8h-10.2
					c-1.6,0-2.8-1.3-2.8-2.8v-10.5C1236.6-39.7,1237.8-41,1239.4-41z"/>
				<path id="XMLID_169_" class="st14" d="M1259-41h10.2c1.6,0,2.8,1.3,2.8,2.8v10.5c0,1.6-1.3,2.8-2.8,2.8H1259
					c-1.6,0-2.8-1.3-2.8-2.8v-10.5C1256.1-39.7,1257.4-41,1259-41z"/>
				<path id="XMLID_168_" class="st14" d="M1278.5-41h10.2c1.6,0,2.8,1.3,2.8,2.8v10.5c0,1.6-1.3,2.8-2.8,2.8h-10.2
					c-1.6,0-2.8-1.3-2.8-2.8v-10.5C1275.7-39.7,1276.9-41,1278.5-41z"/>
				<path id="XMLID_167_" class="st14" d="M1298-41h10.2c1.6,0,2.8,1.3,2.8,2.8v10.5c0,1.6-1.3,2.8-2.8,2.8H1298
					c-1.6,0-2.8-1.3-2.8-2.8v-10.5C1295.2-39.7,1296.5-41,1298-41z"/>
				<path id="XMLID_166_" class="st14" d="M1317.6-41h10.2c1.6,0,2.8,1.3,2.8,2.8v10.5c0,1.6-1.3,2.8-2.8,2.8h-10.2
					c-1.6,0-2.8-1.3-2.8-2.8v-10.5C1314.8-39.7,1316-41,1317.6-41z"/>
				<path id="XMLID_165_" class="st14" d="M1337.2-41h18.4c1.6,0,2.9,1.3,2.9,2.9v10.4c0,1.6-1.3,2.9-2.9,2.9h-18.4
					c-1.6,0-2.9-1.3-2.9-2.9v-10.4C1334.3-39.7,1335.6-41,1337.2-41z"/>
				<path id="XMLID_164_" class="st14" d="M1121.8-22.1h10.2c1.6,0,2.8,1.3,2.8,2.8v10.5c0,1.6-1.3,2.8-2.8,2.8h-10.2
					c-1.6,0-2.8-1.3-2.8-2.8v-10.5C1119-20.8,1120.2-22.1,1121.8-22.1z"/>
				<path id="XMLID_163_" class="st14" d="M1141.4-22.1h10.2c1.6,0,2.8,1.3,2.8,2.8v10.5c0,1.6-1.3,2.8-2.8,2.8h-10.2
					c-1.6,0-2.8-1.3-2.8-2.8v-10.5C1138.5-20.8,1139.8-22.1,1141.4-22.1z"/>
				<path id="XMLID_162_" class="st14" d="M1160.9-22.1h10.2c1.6,0,2.8,1.3,2.8,2.8v10.5c0,1.6-1.3,2.8-2.8,2.8h-10.2
					c-1.6,0-2.8-1.3-2.8-2.8v-10.5C1158.1-20.8,1159.3-22.1,1160.9-22.1z"/>
				<path id="XMLID_161_" class="st14" d="M1180.4-22.1h10.2c1.6,0,2.8,1.3,2.8,2.8v10.5c0,1.6-1.3,2.8-2.8,2.8h-10.2
					c-1.6,0-2.8-1.3-2.8-2.8v-10.5C1177.6-20.8,1178.9-22.1,1180.4-22.1z"/>
				<path id="XMLID_160_" class="st14" d="M1200-22.1h10.2c1.6,0,2.8,1.3,2.8,2.8v10.5c0,1.6-1.3,2.8-2.8,2.8H1200
					c-1.6,0-2.8-1.3-2.8-2.8v-10.5C1197.2-20.8,1198.4-22.1,1200-22.1z"/>
				<path id="XMLID_159_" class="st14" d="M1219.5-22.1h10.2c1.6,0,2.8,1.3,2.8,2.8v10.5c0,1.6-1.3,2.8-2.8,2.8h-10.2
					c-1.6,0-2.8-1.3-2.8-2.8v-10.5C1216.7-20.8,1218-22.1,1219.5-22.1z"/>
				<path id="XMLID_158_" class="st14" d="M1239.1-22.1h10.2c1.6,0,2.8,1.3,2.8,2.8v10.5c0,1.6-1.3,2.8-2.8,2.8h-10.2
					c-1.6,0-2.8-1.3-2.8-2.8v-10.5C1236.3-20.8,1237.5-22.1,1239.1-22.1z"/>
				<path id="XMLID_157_" class="st14" d="M1258.6-22.1h10.2c1.6,0,2.8,1.3,2.8,2.8v10.5c0,1.6-1.3,2.8-2.8,2.8h-10.2
					c-1.6,0-2.8-1.3-2.8-2.8v-10.5C1255.8-20.8,1257.1-22.1,1258.6-22.1z"/>
				<path id="XMLID_156_" class="st14" d="M1278.2-22.1h10.2c1.6,0,2.8,1.3,2.8,2.8v10.5c0,1.6-1.3,2.8-2.8,2.8h-10.2
					c-1.6,0-2.8-1.3-2.8-2.8v-10.5C1275.4-20.8,1276.6-22.1,1278.2-22.1z"/>
				<path id="XMLID_155_" class="st14" d="M1297.7-22.1h10.2c1.6,0,2.8,1.3,2.8,2.8v10.5c0,1.6-1.3,2.8-2.8,2.8h-10.2
					c-1.6,0-2.8-1.3-2.8-2.8v-10.5C1294.9-20.8,1296.2-22.1,1297.7-22.1z"/>
				<path id="XMLID_154_" class="st14" d="M1317.3-22.1h18.4c1.6,0,2.9,1.3,2.9,2.9v10.4c0,1.6-1.3,2.9-2.9,2.9h-18.4
					c-1.6,0-2.9-1.3-2.9-2.9v-10.4C1314.4-20.8,1315.7-22.1,1317.3-22.1z"/>
				<path id="XMLID_153_" class="st14" d="M1346.1-22.1h9.7c1.5,0,2.7,1.2,2.7,2.7v10.7c0,1.5-1.2,2.7-2.7,2.7h-9.7
					c-1.5,0-2.7-1.2-2.7-2.7v-10.7C1343.4-20.8,1344.6-22.1,1346.1-22.1z"/>
				<path id="XMLID_152_" class="st14" d="M1193.3,7.6h101.6c1.5,0,2.8,1.3,2.8,2.8v48.8c0,1.5-1.3,2.8-2.8,2.8h-101.6
					c-1.5,0-2.8-1.3-2.8-2.8V10.4C1190.5,8.9,1191.8,7.6,1193.3,7.6z"/>
				<path id="XMLID_151_" class="st14" d="M1191.1,65.7h50.5c0.3,0,0.6,0.3,0.6,0.6v10.1c0,0.3-0.3,0.6-0.6,0.6h-50.5
					c-0.3,0-0.6-0.3-0.6-0.6V66.3C1190.5,66,1190.8,65.7,1191.1,65.7z"/>
				<path id="XMLID_150_" class="st14" d="M1246.6,65.7h50.5c0.3,0,0.6,0.3,0.6,0.6v10.1c0,0.3-0.3,0.6-0.6,0.6h-50.5
					c-0.3,0-0.6-0.3-0.6-0.6V66.3C1246,66,1246.3,65.7,1246.6,65.7z"/>
				<polygon id="XMLID_149_" class="st12" points="1058.6,-193.7 1404.9,-154.3 1428.8,-193.7 				"/>
			</g>
			<g id="XMLID_66_">
				<path id="XMLID_71_" class="st7" d="M1525.5,157.9c15,0,27.3-16,27.3-35.7s-12.3-35.7-27.3-35.7s-27.3,16-27.3,35.7
					C1498.3,141.9,1510.5,157.9,1525.5,157.9z"/>
				<path id="XMLID_70_" class="st6" d="M1525.5,147.7c12.4,0,22.6-13.3,22.6-29.6c0-16.3-10.1-29.6-22.6-29.6
					c-12.4,0-22.6,13.3-22.6,29.6C1503,134.4,1513.1,147.7,1525.5,147.7z"/>
				<path id="XMLID_69_" class="st12" d="M1525.5,86.5c0.2,0,0.4,0,0.6,0v18.6h-1.1V86.5C1525.2,86.5,1525.3,86.5,1525.5,86.5z"/>
				<path id="XMLID_68_" class="st12" d="M1523.4,91.3h4.2c1,0,1.7,0.8,1.7,1.7v19.2c0,1-0.8,1.7-1.7,1.7h-4.2c-1,0-1.7-0.8-1.7-1.7
					V93C1521.7,92.1,1522.5,91.3,1523.4,91.3z"/>
				<path id="XMLID_67_" class="st8" d="M1524.4,92.7h2.3c0.5,0,1,0.4,1,1v18.1c0,0.5-0.4,1-1,1h-2.3c-0.5,0-1-0.4-1-1V93.7
					C1523.4,93.1,1523.9,92.7,1524.4,92.7z"/>
			</g>
		</g>
		<g id="XMLID_40_">
			<path id="XMLID_53_" class="st0" d="M907.4,82.1l11,10.3l-15,1.1L805.7,59l0,0l-3.6-1.3l-4.6-1.6c-1.7-0.6-2.6-2.5-2-4.2l0.9-2.6
				l0.9-2.6c0.6-1.7,2.5-2.6,4.2-2l8.2,2.9L907.4,82.1z"/>
			<g id="XMLID_43_">
				<path id="XMLID_52_" class="st15" d="M904,76l11,10.3l-15,1.1L794.1,50c-1.7-0.6-2.6-2.5-2-4.2l1.8-5.2c0.6-1.7,2.5-2.6,4.2-2
					L904,76z"/>
				<path id="XMLID_51_" class="st16" d="M904,76l11,10.3l-13.5-4.8L793,43.2l0.9-2.6c0.6-1.7,2.5-2.6,4.2-2L904,76z"/>
				<path id="XMLID_50_" class="st6" d="M904,76l11,10.3l-15,1.1L798.7,51.6c0.7-4.3,2.1-8,4-11.4L904,76z"/>
				<path id="XMLID_49_" class="st17" d="M904,76l11,10.3l-13.5-4.8L800.3,45.7c0.7-2,1.5-3.8,2.5-5.5L904,76z"/>
				<path id="XMLID_48_" class="st18" d="M904,76l11,10.3l-15,1.1l-97.6-34.5c0.7-4.3,2.1-8.1,4-11.4L904,76z"/>
				<path id="XMLID_47_" class="st19" d="M904,76l11,10.3l-13.5-4.8L803.8,47c0.7-2,1.5-3.8,2.6-5.5L904,76z"/>
				<path id="XMLID_46_" class="st20" d="M904,76l11,10.3l-15,1.1c0.3-1.9,0.8-3.9,1.5-5.9C902.1,79.5,903,77.7,904,76z"/>
				<path id="XMLID_45_" class="st21" d="M904,76l11,10.3l-13.5-4.8C902.1,79.5,903,77.7,904,76z"/>
				<path id="XMLID_44_" class="st22" d="M911.3,82.9l3.6,3.4l-5,0.4c0.1-0.6,0.3-1.3,0.5-2C910.7,84,911,83.4,911.3,82.9z"/>
			</g>
		</g>
		<g id="XMLID_109_">
			<g id="XMLID_84_" class="st0">
				<path id="XMLID_108_" d="M1834.8,144.3l4.1,24.8c0.9,5.4-2.8,10.6-8.2,11.5l-142,23.4c-5.4,0.9-10.6-2.8-11.5-8.2l-4.1-24.8
					c-0.9-5.4,2.8-10.6,8.2-11.5l141.9-23.4C1828.7,135.1,1833.9,138.9,1834.8,144.3z"/>
				<g id="XMLID_97_">
					
						<rect id="XMLID_107_" x="1727" y="90.3" transform="matrix(0.1629 0.9866 -0.9866 0.1629 1589.7709 -1611.5546)" width="35.3" height="81.6"/>
					
						<rect id="XMLID_106_" x="1740" y="69.8" transform="matrix(0.1629 0.9866 -0.9866 0.1629 1568.5293 -1624.2755)" width="3" height="84.9"/>
					
						<rect id="XMLID_105_" x="1720.1" y="52" transform="matrix(0.1629 0.9866 -0.9866 0.1629 1546.688 -1637.3916)" width="36.5" height="81.6"/>
					<path id="XMLID_104_" d="M1772.1,14.4l7.9,48.2c0.4,2.6-1.3,5-3.9,5.5l-81,13.4c-2.6,0.4-5-1.3-5.5-3.9l-7.9-48.2
						c-0.4-2.6,1.3-5,3.9-5.5l81-13.4C1769.2,10.1,1771.7,11.8,1772.1,14.4z"/>
					
						<rect id="XMLID_103_" x="1666.7" y="48.3" transform="matrix(0.1629 0.9866 -0.9866 0.1629 1470.7124 -1629.8824)" width="58.3" height="7"/>
					
						<rect id="XMLID_102_" x="1680.6" y="46" transform="matrix(0.1629 0.9866 -0.9866 0.1629 1480.0083 -1645.4851)" width="58.3" height="7"/>
					
						<rect id="XMLID_101_" x="1694.4" y="43.7" transform="matrix(0.1629 0.9866 -0.9866 0.1629 1489.4153 -1661.0215)" width="58.3" height="7"/>
					
						<rect id="XMLID_100_" x="1708.3" y="41.4" transform="matrix(0.1629 0.9866 -0.9866 0.1629 1498.7109 -1676.624)" width="58.3" height="7"/>
					
						<rect id="XMLID_99_" x="1722.2" y="39.1" transform="matrix(0.1629 0.9866 -0.9866 0.1629 1508.0732 -1692.3378)" width="58.3" height="7"/>
					
						<rect id="XMLID_98_" x="1736.1" y="36.9" transform="matrix(0.1629 0.9866 -0.9866 0.1629 1517.4802 -1707.874)" width="58.3" height="7"/>
				</g>
				<path id="XMLID_90_" d="M1778.4,163.6l3.6,21.6c0.3,2.1-1.1,4-3.1,4.4l-47.1,7.8c-2.1,0.3-4-1.1-4.4-3.1l-3.6-21.6
					c-0.3-2.1,1.1-4,3.1-4.4l47.1-7.8C1776,160.1,1778,161.5,1778.4,163.6z"/>
				
					<rect id="XMLID_89_" x="1744.9" y="165.6" transform="matrix(0.1629 0.9866 -0.9866 0.1629 1650.4976 -1575.4761)" width="17.6" height="38.6"/>
				<g id="XMLID_85_">
					
						<rect id="XMLID_88_" x="1748.4" y="173.3" transform="matrix(0.1629 0.9866 -0.9866 0.1629 1668.5898 -1564.6865)" width="16.1" height="55.4"/>
					<path id="XMLID_86_" d="M1784,201l0.1,0.9c0.8,5.1-2.6,10-7.8,10.8l-36.1,6c-5.1,0.8-10-2.6-10.8-7.8l-0.1-0.9L1784,201z"/>
				</g>
			</g>
			<g id="XMLID_83_">
				<path id="XMLID_41_" class="st23" d="M1826.7,145.2l4.1,24.8c0.9,5.4-2.8,10.6-8.2,11.5l-141.9,23.4c-5.4,0.9-10.6-2.8-11.5-8.2
					l-4.1-24.8c-0.9-5.4,2.8-10.6,8.2-11.5l141.9-23.4C1820.7,136,1825.9,139.7,1826.7,145.2z"/>
				<g id="XMLID_58_">
					
						<rect id="XMLID_42_" x="1719" y="91.3" transform="matrix(0.1629 0.9866 -0.9866 0.1629 1584.0458 -1602.8527)" class="st13" width="35.3" height="81.6"/>
					
						<rect id="XMLID_54_" x="1732" y="70.7" transform="matrix(0.1629 0.9866 -0.9866 0.1629 1562.6934 -1615.6401)" class="st23" width="3" height="84.9"/>
					
						<rect id="XMLID_55_" x="1712" y="52.9" transform="matrix(0.1629 0.9866 -0.9866 0.1629 1540.8518 -1628.7562)" class="st13" width="36.5" height="81.6"/>
					<path id="XMLID_56_" class="st23" d="M1764.1,15.3l7.9,48.2c0.4,2.6-1.3,5-3.9,5.5l-81,13.4c-2.6,0.4-5-1.3-5.5-3.9l-7.9-48.2
						c-0.4-2.6,1.3-5,3.9-5.5l81-13.4C1761.2,11,1763.7,12.7,1764.1,15.3z"/>
					
						<rect id="XMLID_57_" x="1658.7" y="49.2" transform="matrix(0.1629 0.9866 -0.9866 0.1629 1464.8765 -1621.2471)" class="st24" width="58.3" height="7"/>
					
						<rect id="XMLID_59_" x="1672.6" y="46.8" transform="matrix(0.1629 0.9866 -0.9866 0.1629 1474.1722 -1636.8497)" class="st24" width="58.3" height="7"/>
					
						<rect id="XMLID_60_" x="1686.4" y="44.6" transform="matrix(0.1629 0.9866 -0.9866 0.1629 1483.579 -1652.3861)" class="st24" width="58.3" height="7"/>
					
						<rect id="XMLID_61_" x="1700.3" y="42.3" transform="matrix(0.1629 0.9866 -0.9866 0.1629 1492.8749 -1667.9888)" class="st24" width="58.3" height="7"/>
					
						<rect id="XMLID_62_" x="1714.2" y="40.1" transform="matrix(0.1629 0.9866 -0.9866 0.1629 1502.3484 -1683.636)" class="st24" width="58.3" height="7"/>
					
						<rect id="XMLID_63_" x="1728.1" y="37.7" transform="matrix(0.1629 0.9866 -0.9866 0.1629 1511.644 -1699.2386)" class="st24" width="58.3" height="7"/>
				</g>
				<g id="XMLID_72_">
					<circle id="XMLID_64_" class="st25" cx="1799.2" cy="173.1" r="15"/>
					<circle id="XMLID_65_" class="st6" cx="1799.4" cy="173" r="7.5"/>
				</g>
				<g id="XMLID_73_">
					<circle id="XMLID_75_" class="st25" cx="1687.9" cy="174.3" r="12"/>
					<circle id="XMLID_74_" class="st6" cx="1688.1" cy="174.2" r="6"/>
				</g>
				<path id="XMLID_76_" class="st26" d="M1770.3,164.5l3.6,21.6c0.3,2.1-1.1,4-3.1,4.4l-47.1,7.8c-2.1,0.3-4-1.1-4.4-3.1l-3.6-21.6
					c-0.3-2.1,1.1-4,3.1-4.4l47.1-7.8C1768,161,1770,162.4,1770.3,164.5z"/>
				
					<rect id="XMLID_77_" x="1736.9" y="166.5" transform="matrix(0.1629 0.9866 -0.9866 0.1629 1644.6615 -1566.8408)" class="st27" width="17.6" height="38.6"/>
				<g id="XMLID_82_">
					
						<rect id="XMLID_79_" x="1740.3" y="174.2" transform="matrix(0.1629 0.9866 -0.9866 0.1629 1662.7538 -1556.0511)" class="st24" width="16.1" height="55.4"/>
					<line id="XMLID_80_" class="st28" x1="1722" y1="204.5" x2="1773.3" y2="196"/>
					<path id="XMLID_81_" class="st23" d="M1776,201.9l0.1,0.9c0.8,5.1-2.6,10-7.8,10.8l-36.1,6c-5.1,0.8-10-2.6-10.8-7.8l-0.1-0.9
						L1776,201.9z"/>
				</g>
			</g>
		</g>
	</g>
</g>
</svg>
