<?xml version="1.0" encoding="utf-8"?>
<!-- Generator: Adobe Illustrator 19.0.0, SVG Export Plug-In . SVG Version: 6.00 Build 0)  -->
<svg version="1.1" xmlns="http://www.w3.org/2000/svg" xmlns:xlink="http://www.w3.org/1999/xlink" x="0px" y="0px"
	 viewBox="0 0 1280 720" style="enable-background:new 0 0 1280 720;" xml:space="preserve">
<style type="text/css">
	.st0{fill:#FFD464;}
	.st1{fill-rule:evenodd;clip-rule:evenodd;fill:#CCA650;}
	.st2{fill-rule:evenodd;clip-rule:evenodd;fill:#254659;}
	.st3{fill-rule:evenodd;clip-rule:evenodd;}
	.st4{fill-rule:evenodd;clip-rule:evenodd;fill:#B0CAD9;}
	.st5{fill-rule:evenodd;clip-rule:evenodd;fill:#D1E2EB;}
	.st6{fill-rule:evenodd;clip-rule:evenodd;fill:#617F91;}
	.st7{fill-rule:evenodd;clip-rule:evenodd;fill:#8097A6;}
	.st8{fill-rule:evenodd;clip-rule:evenodd;fill:#FFFFFF;}
	.st9{fill-rule:evenodd;clip-rule:evenodd;fill:#E6E6E6;}
	.st10{fill-rule:evenodd;clip-rule:evenodd;fill:#B3B3B3;}
	.st11{fill-rule:evenodd;clip-rule:evenodd;fill:#886734;}
	.st12{fill-rule:evenodd;clip-rule:evenodd;fill:#694F28;}
	.st13{fill-rule:evenodd;clip-rule:evenodd;fill:#BD9D6E;}
	.st14{fill-rule:evenodd;clip-rule:evenodd;fill:#4D4D4D;}
	.st15{fill:#333333;}
	.st16{fill:#CCA650;}
	.st17{fill:#FFFFFF;}
	.st18{fill-rule:evenodd;clip-rule:evenodd;fill:#CCCCCC;}
	.st19{fill-rule:evenodd;clip-rule:evenodd;fill:#F85A68;}
	.st20{fill-rule:evenodd;clip-rule:evenodd;fill:#C62229;}
	.st21{fill-rule:evenodd;clip-rule:evenodd;fill:#D0D0D0;}
	.st22{fill-rule:evenodd;clip-rule:evenodd;fill:#F5E6B6;}
	.st23{fill-rule:evenodd;clip-rule:evenodd;fill:#FFD800;}
	.st24{fill-rule:evenodd;clip-rule:evenodd;fill:#F0B16C;}
	.st25{fill-rule:evenodd;clip-rule:evenodd;fill:#C78B4C;}
	.st26{fill-rule:evenodd;clip-rule:evenodd;fill:#1E1E1E;}
	.st27{fill:#CCA650;stroke:#FC2727;stroke-width:3;stroke-miterlimit:10;}
	.st28{fill:#222222;}
	.st29{fill:#444444;}
	.st30{fill:#BBBBBB;}
	.st31{fill:#666666;}
	.st32{fill:#AAAAAA;}
	.st33{fill:#FF2929;stroke:#FC2727;stroke-width:3;stroke-miterlimit:10;}
</style>
<g id="Background">
	<rect id="XMLID_2_" x="0" y="1.4" class="st0" width="1280" height="720"/>
</g>
<g id="Artwork">
	<g id="XMLID_1_">
		<path id="XMLID_262_" class="st1" d="M242.3,249.2c26.3,2.2,47,24.3,47,51.2c0,28.4-23,51.3-51.3,51.3s-51.3-23-51.3-51.3
			c0-25.9,19.2-47.4,44.2-50.8V243c0-2.2,1.8-4,4-4h3.4c2.2,0,4,1.8,4,4V249.2z"/>
		<g id="XMLID_263_">
			<path id="XMLID_256_" class="st1" d="M1023.3,233.5c-4.3-0.8-20.9-9-33.1-12.5c-12.2-3.5-31-5.7-34.4-5.3c-4.1,0.5-4.2,0.7-5,3.6
				c-0.7,2.9-0.8,5.4,1.3,6.6c2.7,1.5,2.2,5,1.9,15c-2.1,4.1-3.2,8.4-3.8,11.1c-1,5.2,3.5,8.4,6.4,3.7c2.8,4.8,8.4,8.9,19,11.9
				c18.6,5.2,27.3-5.7,30.2-9.2c5-6.3,5.8-16.1,15.4-14.2c9.5,1.9,6.7,11.2,8.9,18.9c1.3,4.3,4.9,17.9,24.1,20.2
				c10.9,1.3,17.6-0.3,22.1-3.7c0.9,5.5,6.3,4.3,7.3-1c0.5-2.7,1.2-7.2,0.8-11.8c3.6-9.2,4.5-12.6,7.5-13c2.4-0.3,3.4-2.7,3.8-5.6
				c0.4-2.9,0.4-3.3-3.2-5.2c-3-1.7-21.1-6.9-33.7-8.4C1047.6,233.5,1033.4,235.3,1023.3,233.5z"/>
			<g id="XMLID_129_">
				<path id="XMLID_147_" class="st2" d="M949.8,212.2c24,4.3,106.6,28,118.9,33.6c12.3,5.5,10.6,21.7,9.3,28.2
					c-1.3,6.5-9.3,6.8-7.1-4.2c2.2-11,2.4-17.1-5.1-19.3c-7.5-2.2-109.5-28.5-116.6-30.1C942,218.7,945,210.9,949.8,212.2z"/>
				<path id="XMLID_146_" class="st2" d="M1086.6,239.6c-23.8-5.3-109.2-15.2-122.7-14.8c-13.5,0.4-18.1,15.9-19.4,22.4
					c-1.3,6.5,6,9.8,8.2-1.1c2.2-11,4.3-16.7,12.1-15.8c7.8,0.9,112,15.9,119.2,17.1C1091.3,248.6,1091.4,240.3,1086.6,239.6z"/>
				<path id="XMLID_142_" class="st3" d="M1052.2,278.9c16.6,1.1,22.1-5.7,25.7-14.8c4.2-10.7,5-14.6,8.3-15
					c2.4-0.3,3.4-2.7,3.8-5.6c0.4-2.9,0.4-3.3-3.2-5.2c-3-1.7-21.1-6.9-33.7-8.4c-0.3,0-0.6-0.1-0.9-0.1v3c10.7,1.3,21.4,4.6,24,7
					c5.6,5,0.8,22.6-5.9,30.5c-3.7,4.4-10.9,6-18.1,5.7V278.9z M1017.5,228.6c-4.3-0.8-20.9-9-33.1-12.5c-1.9-0.6-4-1.1-6.2-1.6v3.2
					c10.9,2.3,22.7,6.8,25.8,13.1c4.5,9.4-9.4,27.3-19.6,29.9c-1.8,0.5-3.9,0.6-6.1,0.5v2.9c13,0.5,19.5-7.6,21.9-10.5
					c5-6.3,5.8-16.1,15.4-14.2c9.5,1.9,6.7,11.2,8.9,18.9c1.3,4.3,4.9,17.9,24.1,20.2c1.3,0.2,2.6,0.3,3.7,0.4V276
					c-6.2-0.3-12.4-2.1-16.2-4.9c-8.5-6.3-14.4-28.2-6.6-35.1c4.3-3.8,13.6-4.2,22.8-3.1v-3C1041.1,228.7,1027.3,230.3,1017.5,228.6
					z M978.2,214.6c-11.6-2.6-25.3-4-28.1-3.7c-4.1,0.5-4.2,0.7-5,3.6c-0.7,2.9-0.8,5.4,1.3,6.6c2.9,1.6,2.1,5.5,1.9,17
					c-0.2,10.5,2.7,19.4,21.6,24.7c3,0.8,5.8,1.3,8.3,1.4v-2.9c-10-0.4-22.6-6.1-25.3-14.4c-3.1-9.8-0.8-28,6.3-30.4
					c2.7-1,10.6-0.5,19,1.3V214.6z"/>
				<path id="XMLID_139_" class="st4" d="M959.2,216.4c6.3-2.2,39.4,3.3,44.7,14.5c4.5,9.4-9.4,27.3-19.6,29.9
					c-9.9,2.5-28.1-3.7-31.4-13.9C949.7,237,952.1,218.9,959.2,216.4L959.2,216.4z M1076.3,239.8c-4.9-4.4-37.6-12.2-46.9-3.9
					c-7.8,6.9-1.9,28.8,6.6,35.1c8.2,6.1,27.4,7.4,34.3-0.7C1077,262.5,1081.8,244.8,1076.3,239.8z"/>
				<g id="XMLID_136_">
					<path id="XMLID_138_" class="st5" d="M962.5,215.9c10.5-0.3,36.7,5.1,41.4,14.9c3.2,6.6-2.7,17.4-10.1,24.1L962.5,215.9z"/>
					<path id="XMLID_137_" class="st5" d="M1035.4,233.1l31.9,39.8c1.1-0.7,2.2-1.6,3-2.5c6.7-7.9,11.5-25.5,5.9-30.5
						C1072.1,236.1,1048.4,230.1,1035.4,233.1z"/>
				</g>
				<path id="XMLID_133_" class="st6" d="M1068.8,236.4c-8.3-1.3-18.2-2.7-28.5-4c-2.9,0.2-5.6,0.7-7.8,1.6l0,0l-0.1,0l0,0l0,0
					l-0.1,0l-0.1,0h0l-0.1,0l-0.1,0l0,0l0,0l-0.1,0.1l0,0l0,0l-0.1,0l-0.1,0l0,0l0,0l-0.1,0l-0.1,0l0,0l-0.1,0l-0.1,0l0,0l0,0
					l-0.1,0l-0.1,0l0,0l0,0l-0.1,0l0,0l-0.1,0l0,0l-0.1,0l0,0l0,0l-0.1,0l-0.1,0l0,0l0,0l-0.1,0l-0.1,0l-0.1,0l0,0l-0.1,0l0,0l0,0
					l0,0l0,0l0,0l0,0l0,0l0,0l0,0l0,0l0,0l0,0l-0.1,0.1l0,0l0,0l0,0l-0.1,0.1l0,0l0,0l0,0l0,0l0,0l0,0l0,0l0,0l0,0l0,0l0,0l0,0l0,0
					l0,0l-0.1,0.1l0,0l0,0l-0.1,0.1l0,0l-0.1,0.1l0,0l0,0l0,0l0,0l0,0l0,0l0,0l0,0l0,0l0,0l0,0l0,0l0,0l0,0l0,0l0,0l0,0l0,0l0,0l0,0
					l0,0l0,0c-0.9,1-1.6,2.3-2.1,3.7c19.7,5.1,36.2,9.4,39,10.3c7.5,2.2,7.3,8.3,5.1,19.3l0,0c2.8-3.6,5.3-8.8,6.6-14
					c-1.4-4.1-4.1-7.8-8.8-10c-0.7-0.3-1.7-0.7-2.8-1.1c5.2,0.8,9.6,1.4,12.8,1.9c-0.1-2.9-0.9-5.3-2.4-6.7
					C1075.1,238.8,1072.4,237.6,1068.8,236.4L1068.8,236.4z M967.3,216.1c8.2,2,17.8,4.5,27.8,7.3c2.6,1.3,4.9,2.8,6.6,4.5h0l0,0
					l0,0c0.1,0.1,0.1,0.1,0.2,0.2l0,0l0,0l0,0l0,0l0,0l0,0l0,0l0,0l0,0l0,0l0,0l0,0l0,0l0,0l0,0l0,0l0,0l0,0l0,0l0,0l0,0l0,0l0,0
					l0,0l0,0l0,0l0,0l0,0l0,0l0,0l0,0l0,0l0,0l0,0l0,0l0,0l0,0l0,0l0,0l0,0l0,0l0,0l0,0l0,0l0,0l0,0l0,0l0,0l0,0l0,0l0,0l0,0l0,0
					l0,0l0,0l0,0l0,0l0,0l0,0l0,0l0,0l0,0l0,0l0,0l0,0l0,0l0,0l0,0l0,0l0,0.1l0,0l0,0.1l0,0l0,0l0,0.1l0,0.1l0,0l0,0l0,0l0,0l0,0.1
					l0,0l0,0.1l0,0l0,0l0,0l0,0l0,0l0,0l0,0.1l0,0l0,0l0,0.1l0,0.1l0,0l0,0c0.5,1.3,0.6,2.7,0.5,4.2c-20.2-2.9-37-5.2-39.9-5.6
					c-7.8-0.9-9.9,4.9-12.1,15.8l0,0.1c-1.2-4.4-1.5-10.2-0.8-15.5c2.9-3.3,6.8-5.7,12-5.9c0.8,0,1.8,0,3.1,0
					c-5.1-1.3-9.5-2.4-12.6-3.2c1.2-2.6,2.8-4.5,4.8-5.2C960.6,215.9,963.6,215.8,967.3,216.1z"/>
				<g id="XMLID_130_">
					<path id="XMLID_132_" class="st7" d="M962.5,215.9l12.6,15.6c7.4,1,18,2.5,29.7,4.2c0.1-1.5-0.1-2.9-0.5-4.2l0,0l0,0l0-0.1
						l0-0.1l0,0l0,0l0-0.1l0,0l0,0l0,0l0,0l0,0l0,0l0-0.1l0,0l0-0.1l0,0l0,0l0,0l0,0l0-0.1l0-0.1l0,0l0,0l0-0.1l0,0l0-0.1l0,0l0,0
						l0,0l0,0l0,0l0,0l0,0l0,0l0,0l0,0l0,0l0,0l0,0l0,0l0,0l0,0l0,0l0,0l0,0l0,0l0,0l0,0l0,0l0,0l0,0l0,0l0,0l0,0l0,0l0,0l0,0l0,0
						l0,0l0,0l0,0l0,0l0,0l0,0l0,0l0,0l0,0l0,0l0,0l0,0l0,0l0,0l0,0l0,0l0,0l0,0l0,0l0,0l0,0l0,0l0,0l0,0l0,0l0,0l0,0l0,0l0,0l0,0
						l0,0l0,0l0,0l0,0l0,0l0,0l0,0c-0.1-0.1-0.1-0.1-0.2-0.2l0,0l0,0h0c-1.7-1.7-3.9-3.1-6.6-4.5c-10-2.7-19.6-5.3-27.8-7.3
						C965.5,215.9,963.9,215.9,962.5,215.9z"/>
					<path id="XMLID_131_" class="st7" d="M1068.8,236.4c-8.3-1.3-18.2-2.7-28.5-4c-1.8,0.1-3.4,0.4-4.9,0.7l9.4,11.8
						c11,2.9,19,5,20.9,5.5c7.5,2.2,7.3,8.3,5.1,19.3l0,0c2.8-3.6,5.3-8.8,6.6-14c-1.4-4.1-4.1-7.8-8.8-10c-0.7-0.3-1.7-0.7-2.8-1.1
						c5.2,0.8,9.6,1.4,12.8,1.9c-0.1-2.9-0.9-5.3-2.4-6.7C1075.1,238.8,1072.4,237.6,1068.8,236.4z"/>
				</g>
			</g>
		</g>
		<g id="XMLID_119_">
			<path id="XMLID_128_" class="st8" d="M232.2,346.9c28.3,0,51.3-23.1,51.3-51.3c0-28.3-23.1-51.3-51.3-51.3
				c-28.3,0-51.3,23.1-51.3,51.3C180.8,323.8,203.9,346.9,232.2,346.9z"/>
			<path id="XMLID_127_" class="st9" d="M232.2,343.7c26.5,0,48.2-21.6,48.2-48.2c0-26.5-21.6-48.2-48.2-48.2
				c-26.5,0-48.2,21.6-48.2,48.2C184,322.1,205.6,343.7,232.2,343.7z"/>
			<path id="XMLID_126_" class="st8" d="M229,234.2h3.4c2.2,0,4,1.8,4,4v25.2c0,2.2-1.8,4-4,4H229c-2.2,0-4-1.8-4-4v-25.2
				C225,236,226.8,234.2,229,234.2z"/>
			<path id="XMLID_125_" class="st9" d="M229.6,236.2h2.2c1.4,0,2.6,1.1,2.6,2.6v23.7c0,1.4-1.1,2.6-2.6,2.6h-2.2
				c-1.4,0-2.6-1.1-2.6-2.6v-23.7C227.1,237.3,228.2,236.2,229.6,236.2z"/>
			<path id="XMLID_124_" class="st8" d="M232.2,336c22.3,0,40.4-18.2,40.4-40.4c0-22.3-18.2-40.4-40.4-40.4
				c-22.3,0-40.4,18.2-40.4,40.4C191.7,317.8,209.9,336,232.2,336z"/>
			<path id="XMLID_123_" class="st10" d="M232.2,332c20.1,0,36.4-16.4,36.4-36.4c0-20.1-16.4-36.4-36.4-36.4s-36.4,16.4-36.4,36.4
				C195.7,315.6,212.1,332,232.2,332z"/>
			<path id="XMLID_122_" class="st11" d="M232.2,326.5c17.1,0,31-13.9,31-31c0-17.1-13.9-31-31-31c-17.1,0-31,13.9-31,31
				C201.2,312.6,215.1,326.5,232.2,326.5z"/>
			<path id="XMLID_121_" class="st12" d="M232.2,317.9c12.3,0,22.4-10.1,22.4-22.4c0-12.3-10.1-22.4-22.4-22.4
				c-12.3,0-22.4,10.1-22.4,22.4C209.8,307.9,219.9,317.9,232.2,317.9z"/>
			<path id="XMLID_120_" class="st13" d="M253.8,278.5c3.7,4.7,5.9,10.6,5.9,17.1c0,15.2-12.3,27.5-27.5,27.5
				c-6.4,0-12.4-2.2-17.1-5.9c4.4,2.8,9.6,4.5,15.2,4.5c15.4,0,28-12.5,28-28C258.3,288.1,256.6,282.9,253.8,278.5z"/>
		</g>
		<g id="XMLID_264_">
			<path id="XMLID_255_" class="st1" d="M1158.7,612.1l27.5,14c5.2,2.7,7.3,9.1,4.7,14.3l-37.6,74c-2.7,5.2-9.1,7.3-14.3,4.7
				l-27.5-14c-5.2-2.7-7.3-9.1-4.7-14.3l37.6-74C1147.1,611.5,1153.5,609.4,1158.7,612.1z"/>
			<g id="XMLID_111_">
				<path id="XMLID_118_" class="st8" d="M1152.9,607.2l27.5,14c5.2,2.7,7.3,9.1,4.7,14.3l-37.6,74c-2.7,5.2-9.1,7.3-14.3,4.7
					l-27.5-14c-5.2-2.7-7.3-9.1-4.7-14.3l37.6-74C1141.2,606.7,1147.7,604.5,1152.9,607.2z"/>
				
					<rect id="XMLID_117_" x="1121.6" y="619.6" transform="matrix(-0.8916 -0.4529 0.4529 -0.8916 1865.2343 1764.7751)" class="st3" width="44.6" height="78.9"/>
				<path id="XMLID_116_" class="st10" d="M1155.1,614.8l17.9,9.1c0.5,0.2,1.1,0.1,1.3-0.4l0,0c0.2-0.5,0.1-1.1-0.4-1.3L1156,613
					c-0.5-0.2-1.1-0.1-1.3,0.4v0C1154.5,614,1154.7,614.6,1155.1,614.8z"/>
				<polygon id="XMLID_115_" class="st14" points="1141.9,613.8 1145.9,704.4 1181.6,634 				"/>
				<path id="XMLID_114_" class="st10" d="M1106.9,694.6l30.1,15.3c0.8,0.4,1.7,0.1,2.1-0.7l0,0c0.4-0.8,0.1-1.7-0.7-2.1l-30.1-15.3
					c-0.8-0.4-1.7-0.1-2.1,0.7h0C1105.9,693.3,1106.2,694.2,1106.9,694.6z"/>
				<circle id="XMLID_113_" class="st8" cx="1122.6" cy="700.8" r="6"/>
				<circle id="XMLID_112_" class="st10" cx="1122.6" cy="700.8" r="4.2"/>
			</g>
		</g>
		<g id="XMLID_4_">
			
				<rect id="XMLID_78_" x="82.9" y="438.4" transform="matrix(-0.9026 0.4305 -0.4305 -0.9026 564.9025 995.1208)" class="st1" width="174" height="246.1"/>
			<g id="XMLID_3_">
				
					<rect id="XMLID_5_" x="81.4" y="434.3" transform="matrix(-0.8996 0.4368 -0.4368 -0.8996 563.2838 985.1593)" class="st8" width="174" height="246.1"/>
				<g id="XMLID_6_">
					<path id="XMLID_7_" class="st15" d="M86.5,527l-15,7.3l-1.2-2.5l15-7.3L86.5,527z"/>
					<path id="XMLID_9_" class="st15" d="M84.7,514.3c-1.4-2.8-1.9-5.4-1.5-7.7c0.4-2.3,1.7-4,3.9-5.1c1.1-0.5,2.2-0.8,3.2-0.8
						s2,0.3,3,0.9l-0.8-2.4l2.7-1.3l8.4,17.4c1.1,2.3,1.3,4.4,0.7,6.3s-2.1,3.4-4.5,4.6c-0.8,0.4-1.8,0.7-2.9,1
						c-1.1,0.2-2.1,0.3-3.1,0.3l-0.4-2.9c0.7,0,1.6-0.1,2.5-0.2c0.9-0.2,1.8-0.5,2.5-0.8c1.4-0.7,2.3-1.6,2.6-2.7
						c0.3-1.1,0.1-2.4-0.7-3.9l-0.8-1.7c-0.2,1-0.6,1.9-1.3,2.7c-0.6,0.8-1.4,1.4-2.5,1.9c-2.2,1-4.2,1.1-6.2,0.1
						c-2-1-3.6-2.7-4.8-5.2L84.7,514.3z M88.1,513.1c0.9,1.8,1.9,3,3.2,3.7c1.3,0.7,2.7,0.7,4.2,0c1-0.5,1.7-1.1,2.1-1.8
						c0.4-0.8,0.7-1.6,0.7-2.6l-3.9-8.1c-0.8-0.5-1.6-0.9-2.5-1c-0.9-0.1-1.8,0-2.7,0.5c-1.5,0.7-2.4,1.9-2.5,3.6s0.3,3.5,1.2,5.5
						L88.1,513.1z"/>
					<path id="XMLID_12_" class="st15" d="M115.9,510.1c-2.4,1.2-4.8,1.3-7,0.4c-2.2-0.9-4-2.7-5.2-5.3l-0.3-0.7
						c-1.2-2.5-1.5-4.9-0.8-7.3s2-4.1,4.1-5.1c2.4-1.1,4.5-1.3,6.4-0.5c1.9,0.8,3.4,2.5,4.6,4.8l1,2l-11.4,5.5l0,0.1
						c0.9,1.7,2,2.9,3.3,3.5s2.8,0.7,4.3,0c1.1-0.5,2-1.1,2.6-1.8c0.7-0.7,1.2-1.5,1.5-2.3l2.3,1.5c-0.3,0.9-0.9,1.8-1.8,2.7
						C118.4,508.6,117.3,509.4,115.9,510.1z M107.7,494.6c-1.1,0.5-1.8,1.4-2.1,2.7s-0.2,2.6,0.3,4.1l0.1,0.1l8.1-3.9l-0.2-0.4
						c-0.6-1.3-1.5-2.1-2.5-2.7S109.1,494,107.7,494.6z"/>
					<path id="XMLID_15_" class="st15" d="M133.7,501.4c-2.4,1.2-4.8,1.3-7,0.4c-2.2-0.9-4-2.7-5.2-5.3l-0.3-0.7
						c-1.2-2.5-1.5-4.9-0.8-7.3s2-4.1,4.1-5.1c2.4-1.1,4.5-1.3,6.4-0.5c1.9,0.8,3.4,2.5,4.6,4.8l1,2l-11.4,5.5l0,0.1
						c0.9,1.7,2,2.9,3.3,3.5c1.4,0.7,2.8,0.7,4.3,0c1.1-0.5,2-1.1,2.6-1.8c0.7-0.7,1.2-1.5,1.5-2.3l2.3,1.5
						c-0.3,0.9-0.9,1.8-1.8,2.7S135.2,500.7,133.7,501.4z M125.6,485.9c-1.1,0.5-1.8,1.4-2.1,2.7c-0.3,1.3-0.2,2.6,0.3,4.1l0.1,0.1
						l8.1-3.9l-0.2-0.4c-0.6-1.3-1.5-2.1-2.5-2.7S127,485.3,125.6,485.9z"/>
					<path id="XMLID_18_" class="st15" d="M131.7,473.2l-1-2.1l5.9-2.8l7.1,14.7l2-1l1.5-6.5l-1.7,0.6l-1-2.1l7.4-3.6l1,2.1L151,474
						l-2,7.8l9.1,4.4l2.2-0.6l1,2l-7.3,3.5l-1-2l1.5-1l-7.5-3.6l-2.1,1l2.7,5.6l2.9-0.8l1,2l-8.5,4.1l-1-2l2.4-1.7l-9.8-20.3
						L131.7,473.2z"/>
					<path id="XMLID_20_" class="st15" d="M172.9,462.9l-1.5,1l2,21.2c0.1,1.4,0,2.7-0.4,4c-0.4,1.3-1.3,2.3-2.7,2.9
						c-0.2,0.1-0.6,0.2-1,0.4c-0.4,0.1-0.8,0.2-1,0.3l-0.9-2.7c-0.1,0,0.1-0.1,0.6-0.2s0.8-0.3,0.9-0.4c0.7-0.3,1.1-0.9,1.2-1.7
						c0.1-0.8,0.2-1.7,0.1-2.6l-0.1-2.2l-13-12.1l-1.7,0.5l-1-2.1l7.1-3.4l1,2.1l-1.8,1.3l7.2,7.2l1.7,2l0.1,0l-1.6-12.7l-2.2,0.6
						l-1-2.1l7.1-3.4L172.9,462.9z"/>
					<path id="XMLID_22_" class="st15" d="M101.3,544.5c1.2,2.4,0.6,5.2-1.6,7c3.3-0.8,6.2,0.6,7.6,3.6c1.9,4-0.4,8.2-5.8,10.8
						L90,571.5l-11.3-23.3l11.1-5.4C95.1,540.3,99.5,540.9,101.3,544.5z M95.5,548.6c-0.7-1.4-2.1-1.7-3.8-0.9l-4.7,2.3l2.2,4.5
						l4.7-2.3C95.6,551.5,96.3,550.1,95.5,548.6z M100.7,557.4c-0.7-1.5-2.5-1.8-4.6-0.7l-4.7,2.3l2.4,4.9l4.7-2.3
						C100.6,560.6,101.5,559,100.7,557.4z"/>
					<path id="XMLID_26_" class="st15" d="M116.7,536.1l2.6,5.4c-3.5,1.3-4.9,3.8-4,6.4l4.5,9.2l-5.9,2.9l-8.7-18l5.9-2.9l1.5,3
						C112.7,539.4,114.2,537.3,116.7,536.1z"/>
					<path id="XMLID_28_" class="st15" d="M142,535.2c2.7,5.6,0.5,11.1-5.4,14c-5.9,2.9-11.6,1.1-14.3-4.5
						c-2.7-5.5-0.6-11.1,5.4-13.9C133.6,527.9,139.3,529.7,142,535.2z M128.3,541.9c1.3,2.7,3.7,3.7,6,2.6c2.3-1.1,3-3.7,1.7-6.4
						c-1.3-2.7-3.7-3.7-6.1-2.6C127.7,536.7,127,539.3,128.3,541.9z"/>
					<path id="XMLID_31_" class="st15" d="M170.4,532.9c-2.7,1.3-6.2,1.2-8.6-0.3c-0.2,2.8-2.4,5.6-5,6.9c-4.7,2.3-9.4,0.6-11.8-4.3
						l-5-10.2l5.9-2.8l4.8,10c0.9,1.9,2.6,2.5,4.4,1.6c1.7-0.8,2.3-2.6,1.4-4.5l-4.8-10l5.9-2.8l4.8,10c0.9,1.9,2.7,2.5,4.5,1.6
						c1.7-0.8,2.2-2.6,1.3-4.4l-4.8-10l5.9-2.8l5,10.2C176.6,525.9,175.1,530.6,170.4,532.9z"/>
					<path id="XMLID_33_" class="st15" d="M194.9,506.7l5.5,11.4l-5.9,2.9l-4.7-9.7c-1-2-2.8-2.7-4.7-1.8c-2,1-2.6,3-1.9,5.1
						l4.6,9.5L182,527l-8.7-18l5.9-2.9l1.4,2.9c0.3-2.7,1.8-4.8,4.4-6C189,501.1,192.9,502.5,194.9,506.7z"/>
					<path id="XMLID_35_" class="st15" d="M213.6,489.4l7.8,16.1c2.5,5.1,0.2,10.5-5.4,13.2c-2.7,1.3-6.5,1.9-9.3,1.6l-0.6-4.8
						c2.2,0.2,5-0.3,6.9-1.1c2.6-1.3,3.6-3.7,2.4-6.1l-1.3-2.6c-0.3,2.6-1.7,4.6-4.3,5.9c-4.1,2-8,0.6-10.1-3.6l-4.7-9.6l5.9-2.9
						l3.8,7.9c1,2,2.7,2.7,4.6,1.8c2.2-1.1,2.7-3.3,1.5-5.9l-3.4-7L213.6,489.4z"/>
					<path id="XMLID_37_" class="st15" d="M230.4,500.3c0.8,1.7,0.2,3.5-1.5,4.3c-1.7,0.8-3.4,0.2-4.2-1.5c-0.8-1.7-0.2-3.4,1.4-4.2
						C227.8,498,229.6,498.6,230.4,500.3z M220.5,479.7l2.9,6l3.4,9.7l-3.6,1.7l-5.5-8.7l-2.9-6L220.5,479.7z"/>
				</g>
			</g>
		</g>
		<g id="XMLID_110_">
			<path id="XMLID_257_" class="st16" d="M872,227c15.6,4,29.2,10.3,38.7,19.3c9.7,9.2,15,21.3,13.6,36.7c-0.8,9.2-4,19.5-10.1,31.1
				c1.5,2,2.9,4.1,4.1,6.3c4,7.5,6.1,16.5,6.9,26.2c2.3,29.9-8.5,67.4-19.7,91.6l-0.6,1.3c14.3,1.1,25.6,16.6,25.6,35.6
				c0,19.7-12.2,35.7-27.3,35.7c-15.1,0-27.3-16-27.3-35.7c0-19.3,11.7-35,26.3-35.7l1-2.3c11-23.9,21.7-60.9,19.5-90.4
				c-0.7-9.4-2.8-18.1-6.6-25.3c-1-1.8-2-3.5-3.3-5.1c-1.5,2.7-3.1,5.4-4.9,8.3c-12.2,19.3-24.7,29.5-36.1,33.6v-2.5
				c10.7-4.1,22.4-14,34-32.4c2-3.1,3.7-6.1,5.3-9c-3.2-3.8-7.2-6.9-12.1-9.1c-7.1-3.3-16.1-4.7-27.2-3.9v-2.4
				c11.5-0.8,20.8,0.7,28.2,4.1c4.9,2.3,9,5.3,12.3,9c5.6-10.9,8.6-20.7,9.4-29.3c1.3-14.6-3.7-26-12.9-34.8c-9-8.6-22-14.6-37-18.5
				V227z M794.8,222.9c25.1-2.8,53.1-2,76.6,3.9l0.7,0.2v2.5c-0.4-0.1-0.9-0.2-1.3-0.3c-23.3-5.8-51.1-6.6-76-3.8v206
				c0,4.2-3.5,7.7-7.7,7.7H622V209.5H754v-3.9H622v-62.1h196.4c9.5,0,12.3,4.4,8.5,10.5l-32.9,51.6h-22.9v3.9h16.1
				c4.2,0,7.7,3.5,7.7,7.7V222.9L794.8,222.9z M872,358.2v-2.5c-4.5,1.7-8.8,2.5-12.8,2.3c-9.7-0.3-17.6-5.5-22.2-12.6
				c-4.6-7.1-5.9-16.2-2.3-24.3c4.3-9.8,15.8-18.2,37.2-19.8l0.1,0v-2.4l-0.3,0c-22.4,1.7-34.5,10.7-39.2,21.3
				c-3.9,8.8-2.5,18.7,2.5,26.5c5,7.8,13.6,13.4,24.1,13.7C863.2,360.5,867.5,359.9,872,358.2z M622,439H456.8
				c-4.2,0-7.7-3.5-7.7-7.7V217.2c0-4.2,3.5-7.7,7.7-7.7H473v-3.9h-23.8l-29.3-46.3c-6.6-10.4-5.3-15.8,5.1-15.8h197v62.1H489.9v3.9
				H622V439z"/>
			<path id="XMLID_251_" class="st17" d="M866.2,222.1c15.6,4,29.2,10.3,38.7,19.3c9.7,9.2,15,21.3,13.6,36.7
				c-0.8,9.2-4,19.5-10.1,31.1c1.5,2,2.9,4.1,4.1,6.3c4,7.5,6.1,16.5,6.9,26.2c2.3,29.9-8.5,67.4-19.7,91.6l-4.5,10.6l-0.6-4.7
				l2.9-7c11-23.9,21.7-60.9,19.5-90.4c-0.7-9.4-2.8-18.1-6.6-25.3c-1-1.8-2-3.5-3.3-5.1c-1.5,2.7-3.1,5.4-4.9,8.3
				c-12.2,19.3-24.7,29.5-36.1,33.6v-2.5c10.7-4.1,22.4-14,34-32.4c2-3.1,3.7-6.1,5.3-9c-3.2-3.8-7.2-6.9-12.1-9.1
				c-7.1-3.3-16.1-4.7-27.2-3.9V294c11.5-0.8,20.8,0.7,28.2,4.1c4.9,2.3,9,5.3,12.3,9c5.6-10.9,8.6-20.7,9.4-29.3
				c1.3-14.6-3.7-26-12.9-34.8c-9-8.6-22-14.6-37-18.5V222.1z M772.4,220.4c28.8-5.2,64.3-5.7,93.1,1.5l0.7,0.2v2.5
				c-0.4-0.1-0.9-0.2-1.3-0.3c-28.5-7.1-63.7-6.7-92.1-1.5L772.4,220.4L772.4,220.4z M866.2,353.4c-4.5,1.6-8.8,2.3-12.8,2.2
				c-10.6-0.3-19.1-6-24.1-13.7c-5-7.8-6.4-17.7-2.5-26.5c4.6-10.6,16.7-19.5,39.2-21.3l0.3,0v2.4l-0.1,0
				c-21.4,1.7-32.9,10-37.2,19.8c-3.5,8.1-2.2,17.1,2.3,24.3c4.6,7.1,12.5,12.3,22.2,12.6c4,0.1,8.3-0.6,12.8-2.3V353.4z"/>
			<g id="XMLID_148_">
				<path id="XMLID_250_" class="st8" d="M451,204.6h330.2c4.2,0,7.7,3.5,7.7,7.7v214.2c0,4.2-3.5,7.7-7.7,7.7H451
					c-4.2,0-7.7-3.5-7.7-7.7V212.3C443.3,208.1,446.8,204.6,451,204.6z"/>
				<path id="XMLID_249_" class="st10" d="M466,204.6h19.1v10.9c0,1-0.8,1.8-1.8,1.8h-15.5c-1,0-1.8-0.8-1.8-1.8V204.6z"/>
				<path id="XMLID_248_" class="st10" d="M747.1,204.6h19.1v10.9c0,1-0.8,1.8-1.8,1.8h-15.5c-1,0-1.8-0.8-1.8-1.8V204.6z"/>
				<path id="XMLID_247_" class="st18" d="M419.1,138.5h393.4c9.5,0,12.3,4.4,8.5,10.5L788,200.7H443.3L414,154.3
					C407.4,143.9,408.7,138.5,419.1,138.5z"/>
				<polygon id="XMLID_246_" class="st3" points="800.8,154.3 776.9,193.7 454.7,193.7 430.6,154.3 				"/>
				<path id="XMLID_245_" class="st8" d="M416.9,140h398.7c0.8,0,1.5,0.7,1.5,1.5v0c0,0.8-0.7,1.5-1.5,1.5H416.9
					c-0.8,0-1.5-0.7-1.5-1.5v0C415.4,140.7,416.1,140,416.9,140z"/>
				<path id="XMLID_244_" class="st8" d="M468.7,194.7h13.7c0.9,0,1.6,0.7,1.6,1.6v16.2c0,0.9-0.7,1.6-1.6,1.6h-13.7
					c-0.9,0-1.6-0.7-1.6-1.6v-16.2C467.1,195.4,467.9,194.7,468.7,194.7z"/>
				<path id="XMLID_243_" class="st8" d="M749.8,194.7h13.7c0.9,0,1.6,0.7,1.6,1.6v16.2c0,0.9-0.7,1.6-1.6,1.6h-13.7
					c-0.9,0-1.6-0.7-1.6-1.6v-16.2C748.2,195.4,748.9,194.7,749.8,194.7z"/>
				<path id="XMLID_242_" class="st18" d="M755.3,235.2H766c1.2,0,2.2,1,2.2,2.2v7.9c0,1.2-1,2.2-2.2,2.2h-10.7
					c-1.2,0-2.2-1-2.2-2.2v-7.9C753.1,236.2,754.1,235.2,755.3,235.2z"/>
				<path id="XMLID_241_" class="st18" d="M755.8,250.3h9.7c1.5,0,2.7,1.2,2.7,2.7v10.7c0,1.5-1.2,2.7-2.7,2.7h-9.7
					c-1.5,0-2.7-1.2-2.7-2.7V253C753.1,251.5,754.3,250.3,755.8,250.3z"/>
				<path id="XMLID_240_" class="st18" d="M755.8,269.2h9.7c1.5,0,2.7,1.2,2.7,2.7v10.7c0,1.5-1.2,2.7-2.7,2.7h-9.7
					c-1.5,0-2.7-1.2-2.7-2.7v-10.7C753.1,270.4,754.3,269.2,755.8,269.2z"/>
				<path id="XMLID_239_" class="st18" d="M755.8,288.1h9.7c1.5,0,2.7,1.2,2.7,2.7v10.7c0,1.5-1.2,2.7-2.7,2.7h-9.7
					c-1.5,0-2.7-1.2-2.7-2.7v-10.7C753.1,289.3,754.3,288.1,755.8,288.1z"/>
				<path id="XMLID_238_" class="st18" d="M755.8,307h9.7c1.5,0,2.7,1.2,2.7,2.7v10.7c0,1.5-1.2,2.7-2.7,2.7h-9.7
					c-1.5,0-2.7-1.2-2.7-2.7v-10.7C753.1,308.2,754.3,307,755.8,307z"/>
				<path id="XMLID_237_" class="st18" d="M755.8,325.9h9.7c1.5,0,2.7,1.2,2.7,2.7v10.7c0,1.5-1.2,2.7-2.7,2.7h-9.7
					c-1.5,0-2.7-1.2-2.7-2.7v-10.7C753.1,327.2,754.3,325.9,755.8,325.9z"/>
				<path id="XMLID_236_" class="st18" d="M736.5,235.2h10.7c1.2,0,2.2,1,2.2,2.2v7.9c0,1.2-1,2.2-2.2,2.2h-10.7
					c-1.2,0-2.2-1-2.2-2.2v-7.9C734.3,236.2,735.2,235.2,736.5,235.2z"/>
				<path id="XMLID_235_" class="st18" d="M719.7,250.3h26.7c1.6,0,2.9,1.3,2.9,2.9v10.4c0,1.6-1.3,2.9-2.9,2.9h-26.7
					c-1.6,0-2.9-1.3-2.9-2.9v-10.4C716.8,251.6,718.1,250.3,719.7,250.3z"/>
				<path id="XMLID_234_" class="st18" d="M732,269.2h14.5c1.6,0,2.9,1.3,2.9,2.9v10.4c0,1.6-1.3,2.9-2.9,2.9H732
					c-1.6,0-2.9-1.3-2.9-2.9v-10.4C729.1,270.5,730.4,269.2,732,269.2z"/>
				<path id="XMLID_233_" class="st18" d="M717.6,288.1h28.8c1.6,0,2.9,1.3,2.9,2.9v10.4c0,1.6-1.3,2.9-2.9,2.9h-28.8
					c-1.6,0-2.9-1.3-2.9-2.9V291C714.7,289.4,716,288.1,717.6,288.1z"/>
				<path id="XMLID_232_" class="st18" d="M736.9,307h9.7c1.5,0,2.7,1.2,2.7,2.7v10.7c0,1.5-1.2,2.7-2.7,2.7h-9.7
					c-1.5,0-2.7-1.2-2.7-2.7v-10.7C734.3,308.2,735.5,307,736.9,307z"/>
				<path id="XMLID_231_" class="st18" d="M736.9,325.9h9.7c1.5,0,2.7,1.2,2.7,2.7v10.7c0,1.5-1.2,2.7-2.7,2.7h-9.7
					c-1.5,0-2.7-1.2-2.7-2.7v-10.7C734.3,327.2,735.5,325.9,736.9,325.9z"/>
				<path id="XMLID_230_" class="st18" d="M719.1,235.2h9.2c1.2,0,2.2,1,2.2,2.2v7.9c0,1.2-1,2.2-2.2,2.2h-9.2c-1.2,0-2.2-1-2.2-2.2
					v-7.9C716.8,236.2,717.8,235.2,719.1,235.2z"/>
				<path id="XMLID_229_" class="st18" d="M701.4,235.2h9.2c1.2,0,2.2,1,2.2,2.2v7.9c0,1.2-1,2.2-2.2,2.2h-9.2c-1.2,0-2.2-1-2.2-2.2
					v-7.9C699.2,236.2,700.2,235.2,701.4,235.2z"/>
				<path id="XMLID_228_" class="st18" d="M683.7,235.2h9.2c1.2,0,2.2,1,2.2,2.2v7.9c0,1.2-1,2.2-2.2,2.2h-9.2c-1.2,0-2.2-1-2.2-2.2
					v-7.9C681.5,236.2,682.5,235.2,683.7,235.2z"/>
				<path id="XMLID_227_" class="st18" d="M666,235.2h9.2c1.2,0,2.2,1,2.2,2.2v7.9c0,1.2-1,2.2-2.2,2.2H666c-1.2,0-2.2-1-2.2-2.2
					v-7.9C663.8,236.2,664.8,235.2,666,235.2z"/>
				<path id="XMLID_226_" class="st18" d="M648.3,235.2h9.2c1.2,0,2.2,1,2.2,2.2v7.9c0,1.2-1,2.2-2.2,2.2h-9.2c-1.2,0-2.2-1-2.2-2.2
					v-7.9C646.1,236.2,647.1,235.2,648.3,235.2z"/>
				<path id="XMLID_225_" class="st18" d="M630.6,235.2h9.2c1.2,0,2.2,1,2.2,2.2v7.9c0,1.2-1,2.2-2.2,2.2h-9.2c-1.2,0-2.2-1-2.2-2.2
					v-7.9C628.4,236.2,629.4,235.2,630.6,235.2z"/>
				<path id="XMLID_224_" class="st18" d="M612.9,235.2h9.2c1.2,0,2.2,1,2.2,2.2v7.9c0,1.2-1,2.2-2.2,2.2h-9.2c-1.2,0-2.2-1-2.2-2.2
					v-7.9C610.7,236.2,611.7,235.2,612.9,235.2z"/>
				<path id="XMLID_223_" class="st18" d="M595.3,235.2h9.2c1.2,0,2.2,1,2.2,2.2v7.9c0,1.2-1,2.2-2.2,2.2h-9.2c-1.2,0-2.2-1-2.2-2.2
					v-7.9C593.1,236.2,594,235.2,595.3,235.2z"/>
				<path id="XMLID_222_" class="st18" d="M577.6,235.2h9.2c1.2,0,2.2,1,2.2,2.2v7.9c0,1.2-1,2.2-2.2,2.2h-9.2c-1.2,0-2.2-1-2.2-2.2
					v-7.9C575.4,236.2,576.4,235.2,577.6,235.2z"/>
				<path id="XMLID_221_" class="st18" d="M559.9,235.2h9.2c1.2,0,2.2,1,2.2,2.2v7.9c0,1.2-1,2.2-2.2,2.2h-9.2c-1.2,0-2.2-1-2.2-2.2
					v-7.9C557.7,236.2,558.7,235.2,559.9,235.2z"/>
				<path id="XMLID_220_" class="st18" d="M542.2,235.2h9.2c1.2,0,2.2,1,2.2,2.2v7.9c0,1.2-1,2.2-2.2,2.2h-9.2c-1.2,0-2.2-1-2.2-2.2
					v-7.9C540,236.2,541,235.2,542.2,235.2z"/>
				<path id="XMLID_219_" class="st18" d="M524.5,235.2h9.2c1.2,0,2.2,1,2.2,2.2v7.9c0,1.2-1,2.2-2.2,2.2h-9.2c-1.2,0-2.2-1-2.2-2.2
					v-7.9C522.3,236.2,523.3,235.2,524.5,235.2z"/>
				<path id="XMLID_218_" class="st18" d="M506.8,235.2h9.2c1.2,0,2.2,1,2.2,2.2v7.9c0,1.2-1,2.2-2.2,2.2h-9.2c-1.2,0-2.2-1-2.2-2.2
					v-7.9C504.6,236.2,505.6,235.2,506.8,235.2z"/>
				<path id="XMLID_217_" class="st18" d="M489.2,235.2h9.2c1.2,0,2.2,1,2.2,2.2v7.9c0,1.2-1,2.2-2.2,2.2h-9.2c-1.2,0-2.2-1-2.2-2.2
					v-7.9C486.9,236.2,487.9,235.2,489.2,235.2z"/>
				<path id="XMLID_216_" class="st18" d="M469.3,235.2H480c1.2,0,2.2,1,2.2,2.2v7.9c0,1.2-1,2.2-2.2,2.2h-10.7
					c-1.2,0-2.2-1-2.2-2.2v-7.9C467.1,236.2,468.1,235.2,469.3,235.2z"/>
				<path id="XMLID_215_" class="st18" d="M700.6,250.3h9.5c1.5,0,2.6,1.2,2.6,2.6v10.8c0,1.5-1.2,2.6-2.6,2.6h-9.5
					c-1.5,0-2.6-1.2-2.6-2.6V253C698,251.5,699.2,250.3,700.6,250.3z"/>
				<path id="XMLID_214_" class="st18" d="M681.5,250.3h9.5c1.5,0,2.6,1.2,2.6,2.6v10.8c0,1.5-1.2,2.6-2.6,2.6h-9.5
					c-1.5,0-2.6-1.2-2.6-2.6V253C678.8,251.5,680,250.3,681.5,250.3z"/>
				<path id="XMLID_213_" class="st18" d="M662.3,250.3h9.5c1.5,0,2.6,1.2,2.6,2.6v10.8c0,1.5-1.2,2.6-2.6,2.6h-9.5
					c-1.5,0-2.6-1.2-2.6-2.6V253C659.6,251.5,660.8,250.3,662.3,250.3z"/>
				<path id="XMLID_212_" class="st18" d="M643.1,250.3h9.5c1.5,0,2.6,1.2,2.6,2.6v10.8c0,1.5-1.2,2.6-2.6,2.6h-9.5
					c-1.5,0-2.6-1.2-2.6-2.6V253C640.4,251.5,641.6,250.3,643.1,250.3z"/>
				<path id="XMLID_211_" class="st18" d="M623.9,250.3h9.5c1.5,0,2.6,1.2,2.6,2.6v10.8c0,1.5-1.2,2.6-2.6,2.6h-9.5
					c-1.5,0-2.6-1.2-2.6-2.6V253C621.3,251.5,622.4,250.3,623.9,250.3z"/>
				<path id="XMLID_210_" class="st18" d="M604.7,250.3h9.5c1.5,0,2.6,1.2,2.6,2.6v10.8c0,1.5-1.2,2.6-2.6,2.6h-9.5
					c-1.5,0-2.6-1.2-2.6-2.6V253C602.1,251.5,603.3,250.3,604.7,250.3z"/>
				<path id="XMLID_209_" class="st18" d="M585.5,250.3h9.5c1.5,0,2.6,1.2,2.6,2.6v10.8c0,1.5-1.2,2.6-2.6,2.6h-9.5
					c-1.5,0-2.6-1.2-2.6-2.6V253C582.9,251.5,584.1,250.3,585.5,250.3z"/>
				<path id="XMLID_208_" class="st18" d="M566.3,250.3h9.5c1.5,0,2.6,1.2,2.6,2.6v10.8c0,1.5-1.2,2.6-2.6,2.6h-9.5
					c-1.5,0-2.6-1.2-2.6-2.6V253C563.7,251.5,564.9,250.3,566.3,250.3z"/>
				<path id="XMLID_207_" class="st18" d="M547.2,250.3h9.5c1.5,0,2.6,1.2,2.6,2.6v10.8c0,1.5-1.2,2.6-2.6,2.6h-9.5
					c-1.5,0-2.6-1.2-2.6-2.6V253C544.5,251.5,545.7,250.3,547.2,250.3z"/>
				<path id="XMLID_206_" class="st18" d="M528,250.3h9.5c1.5,0,2.6,1.2,2.6,2.6v10.8c0,1.5-1.2,2.6-2.6,2.6H528
					c-1.5,0-2.6-1.2-2.6-2.6V253C525.3,251.5,526.5,250.3,528,250.3z"/>
				<path id="XMLID_205_" class="st18" d="M508.8,250.3h9.5c1.5,0,2.6,1.2,2.6,2.6v10.8c0,1.5-1.2,2.6-2.6,2.6h-9.5
					c-1.5,0-2.6-1.2-2.6-2.6V253C506.1,251.5,507.3,250.3,508.8,250.3z"/>
				<path id="XMLID_204_" class="st18" d="M489.6,250.3h9.5c1.5,0,2.6,1.2,2.6,2.6v10.8c0,1.5-1.2,2.6-2.6,2.6h-9.5
					c-1.5,0-2.6-1.2-2.6-2.6V253C486.9,251.5,488.1,250.3,489.6,250.3z"/>
				<path id="XMLID_203_" class="st18" d="M469.8,250.3h9.7c1.5,0,2.7,1.2,2.7,2.7v10.7c0,1.5-1.2,2.7-2.7,2.7h-9.7
					c-1.5,0-2.7-1.2-2.7-2.7V253C467.1,251.5,468.3,250.3,469.8,250.3z"/>
				<path id="XMLID_202_" class="st18" d="M470,269.2h19.9c1.6,0,2.9,1.3,2.9,2.9v10.4c0,1.6-1.3,2.9-2.9,2.9H470
					c-1.6,0-2.9-1.3-2.9-2.9v-10.4C467.1,270.5,468.4,269.2,470,269.2z"/>
				<path id="XMLID_201_" class="st18" d="M470,288.1h23.7c1.6,0,2.9,1.3,2.9,2.9v10.4c0,1.6-1.3,2.9-2.9,2.9H470
					c-1.6,0-2.9-1.3-2.9-2.9V291C467.1,289.4,468.4,288.1,470,288.1z"/>
				<path id="XMLID_200_" class="st18" d="M470,307h34c1.6,0,2.9,1.3,2.9,2.9v10.4c0,1.6-1.3,2.9-2.9,2.9h-34
					c-1.6,0-2.9-1.3-2.9-2.9v-10.4C467.1,308.3,468.4,307,470,307z"/>
				<path id="XMLID_199_" class="st18" d="M470,325.9h14.1c1.6,0,2.9,1.3,2.9,2.9v10.4c0,1.6-1.3,2.9-2.9,2.9H470
					c-1.6,0-2.9-1.3-2.9-2.9v-10.4C467.1,327.2,468.4,325.9,470,325.9z"/>
				<path id="XMLID_198_" class="st18" d="M498,269.2h10.2c1.6,0,2.8,1.3,2.8,2.8v10.5c0,1.6-1.3,2.8-2.8,2.8H498
					c-1.6,0-2.8-1.3-2.8-2.8V272C495.2,270.5,496.4,269.2,498,269.2z"/>
				<path id="XMLID_197_" class="st18" d="M517.5,269.2h10.2c1.6,0,2.8,1.3,2.8,2.8v10.5c0,1.6-1.3,2.8-2.8,2.8h-10.2
					c-1.6,0-2.8-1.3-2.8-2.8V272C514.7,270.5,516,269.2,517.5,269.2z"/>
				<path id="XMLID_196_" class="st18" d="M537.1,269.2h10.2c1.6,0,2.8,1.3,2.8,2.8v10.5c0,1.6-1.3,2.8-2.8,2.8h-10.2
					c-1.6,0-2.8-1.3-2.8-2.8V272C534.3,270.5,535.5,269.2,537.1,269.2z"/>
				<path id="XMLID_195_" class="st18" d="M556.6,269.2h10.2c1.6,0,2.8,1.3,2.8,2.8v10.5c0,1.6-1.3,2.8-2.8,2.8h-10.2
					c-1.6,0-2.8-1.3-2.8-2.8V272C553.8,270.5,555.1,269.2,556.6,269.2z"/>
				<path id="XMLID_194_" class="st18" d="M576.2,269.2h10.2c1.6,0,2.8,1.3,2.8,2.8v10.5c0,1.6-1.3,2.8-2.8,2.8h-10.2
					c-1.6,0-2.8-1.3-2.8-2.8V272C573.4,270.5,574.6,269.2,576.2,269.2z"/>
				<path id="XMLID_193_" class="st18" d="M595.7,269.2h10.2c1.6,0,2.8,1.3,2.8,2.8v10.5c0,1.6-1.3,2.8-2.8,2.8h-10.2
					c-1.6,0-2.8-1.3-2.8-2.8V272C592.9,270.5,594.2,269.2,595.7,269.2z"/>
				<path id="XMLID_192_" class="st18" d="M615.3,269.2h10.2c1.6,0,2.8,1.3,2.8,2.8v10.5c0,1.6-1.3,2.8-2.8,2.8h-10.2
					c-1.6,0-2.8-1.3-2.8-2.8V272C612.5,270.5,613.7,269.2,615.3,269.2z"/>
				<path id="XMLID_191_" class="st18" d="M634.8,269.2H645c1.6,0,2.8,1.3,2.8,2.8v10.5c0,1.6-1.3,2.8-2.8,2.8h-10.2
					c-1.6,0-2.8-1.3-2.8-2.8V272C632,270.5,633.3,269.2,634.8,269.2z"/>
				<path id="XMLID_190_" class="st18" d="M654.4,269.2h10.2c1.6,0,2.8,1.3,2.8,2.8v10.5c0,1.6-1.3,2.8-2.8,2.8h-10.2
					c-1.6,0-2.8-1.3-2.8-2.8V272C651.5,270.5,652.8,269.2,654.4,269.2z"/>
				<path id="XMLID_189_" class="st18" d="M673.9,269.2h10.2c1.6,0,2.8,1.3,2.8,2.8v10.5c0,1.6-1.3,2.8-2.8,2.8h-10.2
					c-1.6,0-2.8-1.3-2.8-2.8V272C671.1,270.5,672.4,269.2,673.9,269.2z"/>
				<path id="XMLID_188_" class="st18" d="M693.5,269.2h10.2c1.6,0,2.8,1.3,2.8,2.8v10.5c0,1.6-1.3,2.8-2.8,2.8h-10.2
					c-1.6,0-2.8-1.3-2.8-2.8V272C690.6,270.5,691.9,269.2,693.5,269.2z"/>
				<path id="XMLID_187_" class="st18" d="M713,269.2h10.2c1.6,0,2.8,1.3,2.8,2.8v10.5c0,1.6-1.3,2.8-2.8,2.8H713
					c-1.6,0-2.8-1.3-2.8-2.8V272C710.2,270.5,711.5,269.2,713,269.2z"/>
				<path id="XMLID_186_" class="st18" d="M503.4,288.1h10.2c1.6,0,2.8,1.3,2.8,2.8v10.5c0,1.6-1.3,2.8-2.8,2.8h-10.2
					c-1.6,0-2.8-1.3-2.8-2.8V291C500.6,289.4,501.9,288.1,503.4,288.1z"/>
				<path id="XMLID_185_" class="st18" d="M523,288.1h10.2c1.6,0,2.8,1.3,2.8,2.8v10.5c0,1.6-1.3,2.8-2.8,2.8H523
					c-1.6,0-2.8-1.3-2.8-2.8V291C520.2,289.4,521.4,288.1,523,288.1z"/>
				<path id="XMLID_184_" class="st18" d="M542.5,288.1h10.2c1.6,0,2.8,1.3,2.8,2.8v10.5c0,1.6-1.3,2.8-2.8,2.8h-10.2
					c-1.6,0-2.8-1.3-2.8-2.8V291C539.7,289.4,541,288.1,542.5,288.1z"/>
				<path id="XMLID_183_" class="st18" d="M562.1,288.1h10.2c1.6,0,2.8,1.3,2.8,2.8v10.5c0,1.6-1.3,2.8-2.8,2.8h-10.2
					c-1.6,0-2.8-1.3-2.8-2.8V291C559.2,289.4,560.5,288.1,562.1,288.1z"/>
				<path id="XMLID_182_" class="st18" d="M581.6,288.1h10.2c1.6,0,2.8,1.3,2.8,2.8v10.5c0,1.6-1.3,2.8-2.8,2.8h-10.2
					c-1.6,0-2.8-1.3-2.8-2.8V291C578.8,289.4,580.1,288.1,581.6,288.1z"/>
				<path id="XMLID_181_" class="st18" d="M601.2,288.1h10.2c1.6,0,2.8,1.3,2.8,2.8v10.5c0,1.6-1.3,2.8-2.8,2.8h-10.2
					c-1.6,0-2.8-1.3-2.8-2.8V291C598.3,289.4,599.6,288.1,601.2,288.1z"/>
				<path id="XMLID_180_" class="st18" d="M620.7,288.1h10.2c1.6,0,2.8,1.3,2.8,2.8v10.5c0,1.6-1.3,2.8-2.8,2.8h-10.2
					c-1.6,0-2.8-1.3-2.8-2.8V291C617.9,289.4,619.2,288.1,620.7,288.1z"/>
				<path id="XMLID_179_" class="st18" d="M640.3,288.1h10.2c1.6,0,2.8,1.3,2.8,2.8v10.5c0,1.6-1.3,2.8-2.8,2.8h-10.2
					c-1.6,0-2.8-1.3-2.8-2.8V291C637.4,289.4,638.7,288.1,640.3,288.1z"/>
				<path id="XMLID_178_" class="st18" d="M659.8,288.1H670c1.6,0,2.8,1.3,2.8,2.8v10.5c0,1.6-1.3,2.8-2.8,2.8h-10.2
					c-1.6,0-2.8-1.3-2.8-2.8V291C657,289.4,658.3,288.1,659.8,288.1z"/>
				<path id="XMLID_177_" class="st18" d="M679.4,288.1h10.2c1.6,0,2.8,1.3,2.8,2.8v10.5c0,1.6-1.3,2.8-2.8,2.8h-10.2
					c-1.6,0-2.8-1.3-2.8-2.8V291C676.5,289.4,677.8,288.1,679.4,288.1z"/>
				<path id="XMLID_176_" class="st18" d="M698.9,288.1h10.2c1.6,0,2.8,1.3,2.8,2.8v10.5c0,1.6-1.3,2.8-2.8,2.8h-10.2
					c-1.6,0-2.8-1.3-2.8-2.8V291C696.1,289.4,697.4,288.1,698.9,288.1z"/>
				<path id="XMLID_175_" class="st18" d="M513.7,307h10.2c1.6,0,2.8,1.3,2.8,2.8v10.5c0,1.6-1.3,2.8-2.8,2.8h-10.2
					c-1.6,0-2.8-1.3-2.8-2.8v-10.5C510.8,308.3,512.1,307,513.7,307z"/>
				<path id="XMLID_174_" class="st18" d="M533.2,307h10.2c1.6,0,2.8,1.3,2.8,2.8v10.5c0,1.6-1.3,2.8-2.8,2.8h-10.2
					c-1.6,0-2.8-1.3-2.8-2.8v-10.5C530.4,308.3,531.7,307,533.2,307z"/>
				<path id="XMLID_173_" class="st18" d="M552.8,307h10.2c1.6,0,2.8,1.3,2.8,2.8v10.5c0,1.6-1.3,2.8-2.8,2.8h-10.2
					c-1.6,0-2.8-1.3-2.8-2.8v-10.5C549.9,308.3,551.2,307,552.8,307z"/>
				<path id="XMLID_172_" class="st18" d="M572.3,307h10.2c1.6,0,2.8,1.3,2.8,2.8v10.5c0,1.6-1.3,2.8-2.8,2.8h-10.2
					c-1.6,0-2.8-1.3-2.8-2.8v-10.5C569.5,308.3,570.8,307,572.3,307z"/>
				<path id="XMLID_171_" class="st18" d="M591.9,307H602c1.6,0,2.8,1.3,2.8,2.8v10.5c0,1.6-1.3,2.8-2.8,2.8h-10.2
					c-1.6,0-2.8-1.3-2.8-2.8v-10.5C589,308.3,590.3,307,591.9,307z"/>
				<path id="XMLID_170_" class="st18" d="M611.4,307h10.2c1.6,0,2.8,1.3,2.8,2.8v10.5c0,1.6-1.3,2.8-2.8,2.8h-10.2
					c-1.6,0-2.8-1.3-2.8-2.8v-10.5C608.6,308.3,609.8,307,611.4,307z"/>
				<path id="XMLID_169_" class="st18" d="M631,307h10.2c1.6,0,2.8,1.3,2.8,2.8v10.5c0,1.6-1.3,2.8-2.8,2.8H631
					c-1.6,0-2.8-1.3-2.8-2.8v-10.5C628.1,308.3,629.4,307,631,307z"/>
				<path id="XMLID_168_" class="st18" d="M650.5,307h10.2c1.6,0,2.8,1.3,2.8,2.8v10.5c0,1.6-1.3,2.8-2.8,2.8h-10.2
					c-1.6,0-2.8-1.3-2.8-2.8v-10.5C647.7,308.3,648.9,307,650.5,307z"/>
				<path id="XMLID_167_" class="st18" d="M670,307h10.2c1.6,0,2.8,1.3,2.8,2.8v10.5c0,1.6-1.3,2.8-2.8,2.8H670
					c-1.6,0-2.8-1.3-2.8-2.8v-10.5C667.2,308.3,668.5,307,670,307z"/>
				<path id="XMLID_166_" class="st18" d="M689.6,307h10.2c1.6,0,2.8,1.3,2.8,2.8v10.5c0,1.6-1.3,2.8-2.8,2.8h-10.2
					c-1.6,0-2.8-1.3-2.8-2.8v-10.5C686.8,308.3,688,307,689.6,307z"/>
				<path id="XMLID_165_" class="st18" d="M709.2,307h18.4c1.6,0,2.9,1.3,2.9,2.9v10.4c0,1.6-1.3,2.9-2.9,2.9h-18.4
					c-1.6,0-2.9-1.3-2.9-2.9v-10.4C706.3,308.3,707.6,307,709.2,307z"/>
				<path id="XMLID_164_" class="st18" d="M493.8,325.9H504c1.6,0,2.8,1.3,2.8,2.8v10.5c0,1.6-1.3,2.8-2.8,2.8h-10.2
					c-1.6,0-2.8-1.3-2.8-2.8v-10.5C491,327.2,492.2,325.9,493.8,325.9z"/>
				<path id="XMLID_163_" class="st18" d="M513.4,325.9h10.2c1.6,0,2.8,1.3,2.8,2.8v10.5c0,1.6-1.3,2.8-2.8,2.8h-10.2
					c-1.6,0-2.8-1.3-2.8-2.8v-10.5C510.5,327.2,511.8,325.9,513.4,325.9z"/>
				<path id="XMLID_162_" class="st18" d="M532.9,325.9h10.2c1.6,0,2.8,1.3,2.8,2.8v10.5c0,1.6-1.3,2.8-2.8,2.8h-10.2
					c-1.6,0-2.8-1.3-2.8-2.8v-10.5C530.1,327.2,531.3,325.9,532.9,325.9z"/>
				<path id="XMLID_161_" class="st18" d="M552.4,325.9h10.2c1.6,0,2.8,1.3,2.8,2.8v10.5c0,1.6-1.3,2.8-2.8,2.8h-10.2
					c-1.6,0-2.8-1.3-2.8-2.8v-10.5C549.6,327.2,550.9,325.9,552.4,325.9z"/>
				<path id="XMLID_160_" class="st18" d="M572,325.9h10.2c1.6,0,2.8,1.3,2.8,2.8v10.5c0,1.6-1.3,2.8-2.8,2.8H572
					c-1.6,0-2.8-1.3-2.8-2.8v-10.5C569.2,327.2,570.4,325.9,572,325.9z"/>
				<path id="XMLID_159_" class="st18" d="M591.5,325.9h10.2c1.6,0,2.8,1.3,2.8,2.8v10.5c0,1.6-1.3,2.8-2.8,2.8h-10.2
					c-1.6,0-2.8-1.3-2.8-2.8v-10.5C588.7,327.2,590,325.9,591.5,325.9z"/>
				<path id="XMLID_158_" class="st18" d="M611.1,325.9h10.2c1.6,0,2.8,1.3,2.8,2.8v10.5c0,1.6-1.3,2.8-2.8,2.8h-10.2
					c-1.6,0-2.8-1.3-2.8-2.8v-10.5C608.3,327.2,609.5,325.9,611.1,325.9z"/>
				<path id="XMLID_157_" class="st18" d="M630.6,325.9h10.2c1.6,0,2.8,1.3,2.8,2.8v10.5c0,1.6-1.3,2.8-2.8,2.8h-10.2
					c-1.6,0-2.8-1.3-2.8-2.8v-10.5C627.8,327.2,629.1,325.9,630.6,325.9z"/>
				<path id="XMLID_156_" class="st18" d="M650.2,325.9h10.2c1.6,0,2.8,1.3,2.8,2.8v10.5c0,1.6-1.3,2.8-2.8,2.8h-10.2
					c-1.6,0-2.8-1.3-2.8-2.8v-10.5C647.4,327.2,648.6,325.9,650.2,325.9z"/>
				<path id="XMLID_155_" class="st18" d="M669.7,325.9h10.2c1.6,0,2.8,1.3,2.8,2.8v10.5c0,1.6-1.3,2.8-2.8,2.8h-10.2
					c-1.6,0-2.8-1.3-2.8-2.8v-10.5C666.9,327.2,668.2,325.9,669.7,325.9z"/>
				<path id="XMLID_154_" class="st18" d="M689.3,325.9h18.4c1.6,0,2.9,1.3,2.9,2.9v10.4c0,1.6-1.3,2.9-2.9,2.9h-18.4
					c-1.6,0-2.9-1.3-2.9-2.9v-10.4C686.4,327.2,687.7,325.9,689.3,325.9z"/>
				<path id="XMLID_153_" class="st18" d="M718.1,325.9h9.7c1.5,0,2.7,1.2,2.7,2.7v10.7c0,1.5-1.2,2.7-2.7,2.7h-9.7
					c-1.5,0-2.7-1.2-2.7-2.7v-10.7C715.4,327.2,716.6,325.9,718.1,325.9z"/>
				<path id="XMLID_152_" class="st18" d="M565.3,355.6h101.6c1.5,0,2.8,1.3,2.8,2.8v48.8c0,1.5-1.3,2.8-2.8,2.8H565.3
					c-1.5,0-2.8-1.3-2.8-2.8v-48.8C562.5,356.9,563.8,355.6,565.3,355.6z"/>
				<path id="XMLID_151_" class="st18" d="M563.1,413.7h50.5c0.3,0,0.6,0.3,0.6,0.6v10.1c0,0.3-0.3,0.6-0.6,0.6h-50.5
					c-0.3,0-0.6-0.3-0.6-0.6v-10.1C562.5,414,562.8,413.7,563.1,413.7z"/>
				<path id="XMLID_150_" class="st18" d="M618.6,413.7h50.5c0.3,0,0.6,0.3,0.6,0.6v10.1c0,0.3-0.3,0.6-0.6,0.6h-50.5
					c-0.3,0-0.6-0.3-0.6-0.6v-10.1C618,414,618.3,413.7,618.6,413.7z"/>
				<polygon id="XMLID_149_" class="st14" points="430.6,154.3 776.9,193.7 800.8,154.3 				"/>
			</g>
			<g id="XMLID_66_">
				<path id="XMLID_71_" class="st9" d="M897.5,505.9c15,0,27.3-16,27.3-35.7c0-19.7-12.3-35.7-27.3-35.7c-15,0-27.3,16-27.3,35.7
					C870.3,489.9,882.5,505.9,897.5,505.9z"/>
				<path id="XMLID_70_" class="st8" d="M897.5,495.7c12.4,0,22.6-13.3,22.6-29.6c0-16.3-10.1-29.6-22.6-29.6
					c-12.4,0-22.6,13.3-22.6,29.6C875,482.4,885.1,495.7,897.5,495.7z"/>
				<path id="XMLID_69_" class="st14" d="M897.5,434.5c0.2,0,0.4,0,0.6,0v18.6H897v-18.6C897.2,434.5,897.3,434.5,897.5,434.5z"/>
				<path id="XMLID_68_" class="st14" d="M895.4,439.3h4.2c1,0,1.7,0.8,1.7,1.7v19.2c0,1-0.8,1.7-1.7,1.7h-4.2c-1,0-1.7-0.8-1.7-1.7
					v-19.2C893.7,440.1,894.5,439.3,895.4,439.3z"/>
				<path id="XMLID_67_" class="st10" d="M896.4,440.7h2.3c0.5,0,1,0.4,1,1v18.1c0,0.5-0.4,1-1,1h-2.3c-0.5,0-1-0.4-1-1v-18.1
					C895.4,441.1,895.9,440.7,896.4,440.7z"/>
			</g>
		</g>
		<g id="XMLID_40_">
			<path id="XMLID_53_" class="st1" d="M279.4,430.1l11,10.3l-15,1.1L177.7,407l0,0l-3.6-1.3l-4.6-1.6c-1.7-0.6-2.6-2.5-2-4.2
				l0.9-2.6l0.9-2.6c0.6-1.7,2.5-2.6,4.2-2l8.2,2.9L279.4,430.1z"/>
			<g id="XMLID_43_">
				<path id="XMLID_52_" class="st19" d="M276,424l11,10.3l-15,1.1L166.1,398c-1.7-0.6-2.6-2.5-2-4.2l1.8-5.2c0.6-1.7,2.5-2.6,4.2-2
					L276,424z"/>
				<path id="XMLID_51_" class="st20" d="M276,424l11,10.3l-13.5-4.8L165,391.2l0.9-2.6c0.6-1.7,2.5-2.6,4.2-2L276,424z"/>
				<path id="XMLID_50_" class="st8" d="M276,424l11,10.3l-15,1.1l-101.3-35.8c0.7-4.3,2.1-8,4-11.4L276,424z"/>
				<path id="XMLID_49_" class="st21" d="M276,424l11,10.3l-13.5-4.8l-101.2-35.8c0.7-2,1.5-3.8,2.5-5.5L276,424z"/>
				<path id="XMLID_48_" class="st22" d="M276,424l11,10.3l-15,1.1l-97.6-34.5c0.7-4.3,2.1-8.1,4-11.4L276,424z"/>
				<path id="XMLID_47_" class="st23" d="M276,424l11,10.3l-13.5-4.8L175.8,395c0.7-2,1.5-3.8,2.6-5.5L276,424z"/>
				<path id="XMLID_46_" class="st24" d="M276,424l11,10.3l-15,1.1c0.3-1.9,0.8-3.9,1.5-5.9C274.1,427.5,275,425.7,276,424z"/>
				<path id="XMLID_45_" class="st25" d="M276,424l11,10.3l-13.5-4.8C274.1,427.5,275,425.7,276,424z"/>
				<path id="XMLID_44_" class="st26" d="M283.3,430.9l3.6,3.4l-5,0.4c0.1-0.6,0.3-1.3,0.5-2C282.7,432,283,431.4,283.3,430.9z"/>
			</g>
		</g>
		<g id="XMLID_109_">
			<g id="XMLID_84_">
				<path id="XMLID_108_" class="st16" d="M1206.8,492.3l4.1,24.8c0.9,5.4-2.8,10.6-8.2,11.5L1060.7,552c-5.4,0.9-10.6-2.8-11.5-8.2
					l-4.1-24.8c-0.9-5.4,2.8-10.6,8.2-11.5l141.9-23.4C1200.7,483.1,1205.9,486.9,1206.8,492.3z"/>
				<g id="XMLID_97_">
					
						<rect id="XMLID_107_" x="1099.1" y="438.3" transform="matrix(-0.1629 -0.9866 0.9866 -0.1629 825.8549 1658.9469)" class="st16" width="35.3" height="81.6"/>
					
						<rect id="XMLID_106_" x="1112.1" y="417.8" transform="matrix(-0.1629 -0.9866 0.9866 -0.1629 840.8152 1633.8898)" class="st16" width="3" height="84.9"/>
					
						<rect id="XMLID_105_" x="1092.1" y="400" transform="matrix(-0.1629 -0.9866 0.9866 -0.1629 856.2841 1608.0852)" class="st16" width="36.5" height="81.6"/>
					<path id="XMLID_104_" class="st16" d="M1144.1,362.4l7.9,48.2c0.4,2.6-1.3,5-3.9,5.5l-81,13.4c-2.6,0.4-5-1.3-5.5-3.9
						l-7.9-48.2c-0.4-2.6,1.3-5,3.9-5.5l81-13.4C1141.2,358.1,1143.7,359.8,1144.1,362.4z"/>
					
						<rect id="XMLID_103_" x="1038.8" y="396.2" transform="matrix(-0.1629 -0.9866 0.9866 -0.1629 847.5133 1518.5385)" class="st16" width="58.3" height="7"/>
					
						<rect id="XMLID_102_" x="1052.7" y="393.9" transform="matrix(-0.1629 -0.9866 0.9866 -0.1629 865.8898 1529.5544)" class="st16" width="58.3" height="7"/>
					
						<rect id="XMLID_101_" x="1066.5" y="391.6" transform="matrix(-0.1629 -0.9866 0.9866 -0.1629 884.2664 1540.5704)" class="st16" width="58.3" height="7"/>
					
						<rect id="XMLID_100_" x="1080.4" y="389.3" transform="matrix(-0.1629 -0.9866 0.9866 -0.1629 902.6428 1551.5864)" class="st16" width="58.3" height="7"/>
					
						<rect id="XMLID_99_" x="1094.3" y="387.1" transform="matrix(-0.1629 -0.9866 0.9866 -0.1629 921.0193 1562.6024)" class="st16" width="58.3" height="7"/>
					
						<rect id="XMLID_98_" x="1108.1" y="384.8" transform="matrix(-0.1629 -0.9866 0.9866 -0.1629 939.3959 1573.6184)" class="st16" width="58.3" height="7"/>
				</g>
				<g id="XMLID_94_">
					<circle id="XMLID_96_" class="st16" cx="1179.2" cy="520.3" r="15"/>
					<circle id="XMLID_95_" class="st16" cx="1179.5" cy="520.1" r="7.5"/>
				</g>
				<g id="XMLID_91_">
					<circle id="XMLID_93_" class="st16" cx="1067.9" cy="521.4" r="12"/>
					<circle id="XMLID_92_" class="st16" cx="1068.1" cy="521.3" r="6"/>
				</g>
				<path id="XMLID_90_" class="st16" d="M1150.4,511.6l3.6,21.6c0.3,2.1-1.1,4-3.1,4.4l-47.1,7.8c-2.1,0.3-4-1.1-4.4-3.1l-3.6-21.6
					c-0.3-2.1,1.1-4,3.1-4.4l47.1-7.8C1148,508.1,1150,509.5,1150.4,511.6z"/>
				
					<rect id="XMLID_89_" x="1117" y="513.6" transform="matrix(-0.1629 -0.9866 0.9866 -0.1629 783.3515 1730.4667)" class="st16" width="17.6" height="38.6"/>
				<g id="XMLID_85_">
					
						<rect id="XMLID_88_" x="1120.4" y="521.3" transform="matrix(-0.1629 -0.9866 0.9866 -0.1629 770.5864 1751.7609)" class="st16" width="16.1" height="55.4"/>
					<line id="XMLID_87_" class="st27" x1="1102" y1="551.6" x2="1153.3" y2="543.1"/>
					<path id="XMLID_86_" class="st16" d="M1156,549l0.1,0.9c0.8,5.1-2.6,10-7.8,10.8l-36.1,6c-5.1,0.8-10-2.6-10.8-7.8l-0.1-0.9
						L1156,549z"/>
				</g>
			</g>
			<g id="XMLID_83_">
				<path id="XMLID_41_" class="st28" d="M1198.7,493.2l4.1,24.8c0.9,5.4-2.8,10.6-8.2,11.5l-141.9,23.4c-5.4,0.9-10.6-2.8-11.5-8.2
					l-4.1-24.8c-0.9-5.4,2.8-10.6,8.2-11.5l141.9-23.4C1192.7,484,1197.9,487.7,1198.7,493.2z"/>
				<g id="XMLID_58_">
					
						<rect id="XMLID_42_" x="1091" y="439.2" transform="matrix(-0.1629 -0.9866 0.9866 -0.1629 815.6567 1652.0791)" class="st15" width="35.3" height="81.6"/>
					
						<rect id="XMLID_54_" x="1104.1" y="418.7" transform="matrix(-0.1629 -0.9866 0.9866 -0.1629 830.617 1627.022)" class="st28" width="3" height="84.9"/>
					
						<rect id="XMLID_55_" x="1084.1" y="400.9" transform="matrix(-0.1629 -0.9866 0.9866 -0.1629 846.0858 1601.2173)" class="st15" width="36.5" height="81.6"/>
					<path id="XMLID_56_" class="st28" d="M1136.1,363.3l7.9,48.2c0.4,2.6-1.3,5-3.9,5.5l-81,13.4c-2.6,0.4-5-1.3-5.5-3.9l-7.9-48.2
						c-0.4-2.6,1.3-5,3.9-5.5l81-13.4C1133.2,359,1135.7,360.7,1136.1,363.3z"/>
					
						<rect id="XMLID_57_" x="1030.8" y="397.1" transform="matrix(-0.1629 -0.9866 0.9866 -0.1629 837.3151 1511.6707)" class="st29" width="58.3" height="7"/>
					
						<rect id="XMLID_59_" x="1044.7" y="394.8" transform="matrix(-0.1629 -0.9866 0.9866 -0.1629 855.6916 1522.6865)" class="st29" width="58.3" height="7"/>
					
						<rect id="XMLID_60_" x="1058.5" y="392.5" transform="matrix(-0.1629 -0.9866 0.9866 -0.1629 874.0681 1533.7025)" class="st29" width="58.3" height="7"/>
					
						<rect id="XMLID_61_" x="1072.4" y="390.2" transform="matrix(-0.1629 -0.9866 0.9866 -0.1629 892.4446 1544.7185)" class="st29" width="58.3" height="7"/>
					
						<rect id="XMLID_62_" x="1086.2" y="388" transform="matrix(-0.1629 -0.9866 0.9866 -0.1629 910.8212 1555.7345)" class="st29" width="58.3" height="7"/>
					
						<rect id="XMLID_63_" x="1100.1" y="385.7" transform="matrix(-0.1629 -0.9866 0.9866 -0.1629 929.1976 1566.7505)" class="st29" width="58.3" height="7"/>
				</g>
				<g id="XMLID_72_">
					<circle id="XMLID_64_" class="st30" cx="1171.2" cy="521.1" r="15"/>
					<circle id="XMLID_65_" class="st17" cx="1171.4" cy="521" r="7.5"/>
				</g>
				<g id="XMLID_73_">
					<circle id="XMLID_75_" class="st30" cx="1059.9" cy="522.3" r="12"/>
					<circle id="XMLID_74_" class="st17" cx="1060.1" cy="522.2" r="6"/>
				</g>
				<path id="XMLID_76_" class="st31" d="M1142.3,512.5l3.6,21.6c0.3,2.1-1.1,4-3.1,4.4l-47.1,7.8c-2.1,0.3-4-1.1-4.4-3.1l-3.6-21.6
					c-0.3-2.1,1.1-4,3.1-4.4l47.1-7.8C1140,509,1142,510.4,1142.3,512.5z"/>
				
					<rect id="XMLID_77_" x="1109" y="514.5" transform="matrix(-0.1629 -0.9866 0.9866 -0.1629 773.1533 1723.5988)" class="st32" width="17.6" height="38.6"/>
				<g id="XMLID_82_">
					
						<rect id="XMLID_79_" x="1112.4" y="522.2" transform="matrix(-0.1629 -0.9866 0.9866 -0.1629 760.3882 1744.8931)" class="st29" width="16.1" height="55.4"/>
					<line id="XMLID_80_" class="st33" x1="1094" y1="552.5" x2="1145.3" y2="544"/>
					<path id="XMLID_81_" class="st28" d="M1148,549.9l0.1,0.9c0.8,5.1-2.6,10-7.8,10.8l-36.1,6c-5.1,0.8-10-2.6-10.8-7.8l-0.1-0.9
						L1148,549.9z"/>
				</g>
			</g>
		</g>
	</g>
</g>
</svg>
