<?xml version="1.0" encoding="utf-8"?>
<!-- Generator: Adobe Illustrator 19.0.0, SVG Export Plug-In . SVG Version: 6.00 Build 0)  -->
<svg version="1.1" id="Layer_1" xmlns="http://www.w3.org/2000/svg" xmlns:xlink="http://www.w3.org/1999/xlink" x="0px" y="0px"
	 viewBox="0 0 24 24" style="enable-background:new 0 0 24 24;" xml:space="preserve">
<style type="text/css">
	.st0{fill:#333333;}
	.st1{fill-rule:evenodd;clip-rule:evenodd;fill:#333333;}
</style>
<g id="XMLID_345_">
	<g id="XMLID_75_">
		<path id="XMLID_76_" class="st0" d="M23.4,8.3c1.6,4.9-0.2,10.4-4.4,13.4c-4.2,3.1-9.9,3.1-14.1,0c-4.2-3.1-6-8.5-4.4-13.4
			C2.2,3.4,6.8,0,12,0C17.2,0,21.8,3.4,23.4,8.3z M12,1.1c-4.7,0-8.9,3-10.4,7.5c-1.5,4.5,0.1,9.4,4,12.2c3.8,2.8,9,2.8,12.8,0
			c3.8-2.8,5.4-7.7,4-12.2C20.9,4.1,16.7,1.1,12,1.1z"/>
	</g>
	<path id="XMLID_77_" class="st1" d="M11.6,13.7C11.6,13.7,11.6,13.8,11.6,13.7c-0.4,1.6-0.5,2-0.9,2.7c-0.2,0.3-0.4,0.7-0.7,1
		c0,0-0.1,0.1-0.1,0.1c-0.1,0-0.1-0.1-0.1-0.1c-0.1-0.5-0.1-0.9-0.1-1.4c0-0.6,0.1-0.8,0.9-4.2c0-0.1,0-0.1,0-0.1
		c-0.2-0.5-0.2-1-0.1-1.6c0.4-1.1,1.7-1.2,1.9-0.3c0.1,0.6-0.2,1.4-0.5,2.5c-0.2,0.9,0.9,1.6,1.8,0.9c0.9-0.6,1.2-2.1,1.1-3.2
		C14.8,7.8,12.5,7.3,11,8c-1.7,0.8-2.1,2.9-1.3,3.9c0.1,0.1,0.2,0.2,0.1,0.3c0,0.2-0.1,0.4-0.1,0.6c0,0.1-0.2,0.2-0.3,0.1
		c-0.3-0.1-0.5-0.3-0.7-0.5C8,11.6,7.8,10,8.7,8.6c1-1.5,2.7-2.1,4.4-1.9c1.9,0.2,3.2,1.5,3.4,3c0.1,0.7,0,2.4-0.9,3.6
		c-1.1,1.4-2.9,1.5-3.7,0.6C11.7,13.9,11.7,13.8,11.6,13.7z"/>
</g>
</svg>
