<?xml version="1.0" encoding="utf-8"?>
<!-- Generator: Adobe Illustrator 19.0.0, SVG Export Plug-In . SVG Version: 6.00 Build 0)  -->
<svg version="1.1" id="Layer_1" xmlns="http://www.w3.org/2000/svg" xmlns:xlink="http://www.w3.org/1999/xlink" x="0px" y="0px"
	 viewBox="0 0 24 24" style="enable-background:new 0 0 24 24;" xml:space="preserve">
<style type="text/css">
	.st0{fill:#333333;}
	.st1{fill-rule:evenodd;clip-rule:evenodd;fill:#333333;}
</style>
<g id="XMLID_4_">
	<g id="XMLID_8_">
		<path id="XMLID_9_" class="st0" d="M23.4,8.3c1.6,4.9-0.2,10.4-4.4,13.4c-4.2,3.1-9.9,3.1-14.1,0c-4.2-3.1-6-8.5-4.4-13.4
			C2.2,3.4,6.8,0,12,0C17.2,0,21.8,3.4,23.4,8.3z M12,1.1c-4.7,0-8.9,3-10.4,7.5c-1.5,4.5,0.1,9.4,4,12.2c3.8,2.8,9,2.8,12.8,0
			c3.8-2.8,5.4-7.7,4-12.2C20.9,4.1,16.7,1.1,12,1.1z"/>
	</g>
	<path id="XMLID_10_" class="st1" d="M10.2,14.6c-1.2,0-2-0.9-2.2-1.6c0.3,0.1,0.7,0.1,1,0c0,0,0,0,0,0c-0.7-0.2-1.2-0.5-1.5-1.1
		c-0.2-0.4-0.3-0.8-0.3-1.2c0.3,0.2,0.7,0.3,1,0.3c-0.5-0.4-0.8-0.8-1-1.4c-0.1-0.6,0-1.2,0.2-1.7c1.3,1.5,2.9,2.3,4.8,2.4
		c0-0.1,0-0.2,0-0.3c-0.1-0.5,0-1.1,0.3-1.5c0.4-0.6,0.9-0.9,1.6-1.1c0.8-0.1,1.5,0.1,2,0.6c0,0,0.1,0,0.1,0
		c0.5-0.1,0.9-0.3,1.4-0.5c0,0,0,0,0,0c0,0,0,0,0,0c-0.2,0.5-0.5,1-1,1.3c0.5,0,0.9-0.2,1.3-0.3c0,0,0,0,0,0
		c-0.1,0.1-0.2,0.2-0.3,0.3c-0.2,0.3-0.5,0.6-0.8,0.8c0,0,0,0,0,0.1c0,0.3,0,0.7,0,1c-0.1,0.7-0.3,1.4-0.6,2.1
		c-0.3,0.7-0.7,1.3-1.3,1.8c-0.9,0.9-2,1.5-3.2,1.8c-0.4,0.1-0.9,0.1-1.3,0.2c-1.3,0-2.6-0.3-3.7-1c0,0,0,0-0.1,0
		c0.8,0.1,1.6,0,2.3-0.3C9.5,15.1,9.9,14.9,10.2,14.6z"/>
</g>
</svg>
